<?xml version="1.0" encoding="utf-8" standalone="no"?>
<!DOCTYPE svg PUBLIC "-//W3C//DTD SVG 1.1//EN"
  "http://www.w3.org/Graphics/SVG/1.1/DTD/svg11.dtd">
<svg xmlns:xlink="http://www.w3.org/1999/xlink" width="720pt" height="720pt" viewBox="0 0 720 720" xmlns="http://www.w3.org/2000/svg" version="1.1">
 <metadata>
  <rdf:RDF xmlns:dc="http://purl.org/dc/elements/1.1/" xmlns:cc="http://creativecommons.org/ns#" xmlns:rdf="http://www.w3.org/1999/02/22-rdf-syntax-ns#">
   <cc:Work>
    <dc:type rdf:resource="http://purl.org/dc/dcmitype/StillImage"/>
    <dc:date>2024-02-02T13:53:54.824553</dc:date>
    <dc:format>image/svg+xml</dc:format>
    <dc:creator>
     <cc:Agent>
      <dc:title>Matplotlib v3.8.0, https://matplotlib.org/</dc:title>
     </cc:Agent>
    </dc:creator>
   </cc:Work>
  </rdf:RDF>
 </metadata>
 <defs>
  <style type="text/css">*{stroke-linejoin: round; stroke-linecap: butt}</style>
 </defs>
 <g id="figure_1">
  <g id="patch_1">
   <path d="M 0 720 
L 720 720 
L 720 0 
L 0 0 
z
" style="fill: #ffffff"/>
  </g>
  <g id="axes_1">
   <g id="patch_2">
    <path d="M 129.71 670.84 
L 696.6 670.84 
L 696.6 470.906667 
L 129.71 470.906667 
z
" style="fill: #ffffff"/>
   </g>
   <g id="matplotlib.axis_1">
    <g id="xtick_1">
     <g id="line2d_1">
      <defs>
       <path id="m475cee7334" d="M 0 0 
L 0 3.5 
" style="stroke: #000000; stroke-width: 0.8"/>
      </defs>
      <g>
       <use xlink:href="#m475cee7334" x="129.71" y="670.84" style="stroke: #000000; stroke-width: 0.8"/>
      </g>
     </g>
     <g id="text_1">
      <!-- 0 -->
      <g transform="translate(126.52875 685.438437) scale(0.1 -0.1)">
       <defs>
        <path id="DejaVuSans-30" d="M 2034 4250 
Q 1547 4250 1301 3770 
Q 1056 3291 1056 2328 
Q 1056 1369 1301 889 
Q 1547 409 2034 409 
Q 2525 409 2770 889 
Q 3016 1369 3016 2328 
Q 3016 3291 2770 3770 
Q 2525 4250 2034 4250 
z
M 2034 4750 
Q 2819 4750 3233 4129 
Q 3647 3509 3647 2328 
Q 3647 1150 3233 529 
Q 2819 -91 2034 -91 
Q 1250 -91 836 529 
Q 422 1150 422 2328 
Q 422 3509 836 4129 
Q 1250 4750 2034 4750 
z
" transform="scale(0.015625)"/>
       </defs>
       <use xlink:href="#DejaVuSans-30"/>
      </g>
     </g>
    </g>
    <g id="xtick_2">
     <g id="line2d_2">
      <g>
       <use xlink:href="#m475cee7334" x="181.245455" y="670.84" style="stroke: #000000; stroke-width: 0.8"/>
      </g>
     </g>
     <g id="text_2">
      <!-- 250 -->
      <g transform="translate(171.701705 685.438437) scale(0.1 -0.1)">
       <defs>
        <path id="DejaVuSans-32" d="M 1228 531 
L 3431 531 
L 3431 0 
L 469 0 
L 469 531 
Q 828 903 1448 1529 
Q 2069 2156 2228 2338 
Q 2531 2678 2651 2914 
Q 2772 3150 2772 3378 
Q 2772 3750 2511 3984 
Q 2250 4219 1831 4219 
Q 1534 4219 1204 4116 
Q 875 4013 500 3803 
L 500 4441 
Q 881 4594 1212 4672 
Q 1544 4750 1819 4750 
Q 2544 4750 2975 4387 
Q 3406 4025 3406 3419 
Q 3406 3131 3298 2873 
Q 3191 2616 2906 2266 
Q 2828 2175 2409 1742 
Q 1991 1309 1228 531 
z
" transform="scale(0.015625)"/>
        <path id="DejaVuSans-35" d="M 691 4666 
L 3169 4666 
L 3169 4134 
L 1269 4134 
L 1269 2991 
Q 1406 3038 1543 3061 
Q 1681 3084 1819 3084 
Q 2600 3084 3056 2656 
Q 3513 2228 3513 1497 
Q 3513 744 3044 326 
Q 2575 -91 1722 -91 
Q 1428 -91 1123 -41 
Q 819 9 494 109 
L 494 744 
Q 775 591 1075 516 
Q 1375 441 1709 441 
Q 2250 441 2565 725 
Q 2881 1009 2881 1497 
Q 2881 1984 2565 2268 
Q 2250 2553 1709 2553 
Q 1456 2553 1204 2497 
Q 953 2441 691 2322 
L 691 4666 
z
" transform="scale(0.015625)"/>
       </defs>
       <use xlink:href="#DejaVuSans-32"/>
       <use xlink:href="#DejaVuSans-35" x="63.623047"/>
       <use xlink:href="#DejaVuSans-30" x="127.246094"/>
      </g>
     </g>
    </g>
    <g id="xtick_3">
     <g id="line2d_3">
      <g>
       <use xlink:href="#m475cee7334" x="232.780909" y="670.84" style="stroke: #000000; stroke-width: 0.8"/>
      </g>
     </g>
     <g id="text_3">
      <!-- 500 -->
      <g transform="translate(223.237159 685.438437) scale(0.1 -0.1)">
       <use xlink:href="#DejaVuSans-35"/>
       <use xlink:href="#DejaVuSans-30" x="63.623047"/>
       <use xlink:href="#DejaVuSans-30" x="127.246094"/>
      </g>
     </g>
    </g>
    <g id="xtick_4">
     <g id="line2d_4">
      <g>
       <use xlink:href="#m475cee7334" x="284.316364" y="670.84" style="stroke: #000000; stroke-width: 0.8"/>
      </g>
     </g>
     <g id="text_4">
      <!-- 750 -->
      <g transform="translate(274.772614 685.438437) scale(0.1 -0.1)">
       <defs>
        <path id="DejaVuSans-37" d="M 525 4666 
L 3525 4666 
L 3525 4397 
L 1831 0 
L 1172 0 
L 2766 4134 
L 525 4134 
L 525 4666 
z
" transform="scale(0.015625)"/>
       </defs>
       <use xlink:href="#DejaVuSans-37"/>
       <use xlink:href="#DejaVuSans-35" x="63.623047"/>
       <use xlink:href="#DejaVuSans-30" x="127.246094"/>
      </g>
     </g>
    </g>
    <g id="xtick_5">
     <g id="line2d_5">
      <g>
       <use xlink:href="#m475cee7334" x="335.851818" y="670.84" style="stroke: #000000; stroke-width: 0.8"/>
      </g>
     </g>
     <g id="text_5">
      <!-- 1000 -->
      <g transform="translate(323.126818 685.438437) scale(0.1 -0.1)">
       <defs>
        <path id="DejaVuSans-31" d="M 794 531 
L 1825 531 
L 1825 4091 
L 703 3866 
L 703 4441 
L 1819 4666 
L 2450 4666 
L 2450 531 
L 3481 531 
L 3481 0 
L 794 0 
L 794 531 
z
" transform="scale(0.015625)"/>
       </defs>
       <use xlink:href="#DejaVuSans-31"/>
       <use xlink:href="#DejaVuSans-30" x="63.623047"/>
       <use xlink:href="#DejaVuSans-30" x="127.246094"/>
       <use xlink:href="#DejaVuSans-30" x="190.869141"/>
      </g>
     </g>
    </g>
    <g id="xtick_6">
     <g id="line2d_6">
      <g>
       <use xlink:href="#m475cee7334" x="387.387273" y="670.84" style="stroke: #000000; stroke-width: 0.8"/>
      </g>
     </g>
     <g id="text_6">
      <!-- 1250 -->
      <g transform="translate(374.662273 685.438437) scale(0.1 -0.1)">
       <use xlink:href="#DejaVuSans-31"/>
       <use xlink:href="#DejaVuSans-32" x="63.623047"/>
       <use xlink:href="#DejaVuSans-35" x="127.246094"/>
       <use xlink:href="#DejaVuSans-30" x="190.869141"/>
      </g>
     </g>
    </g>
    <g id="xtick_7">
     <g id="line2d_7">
      <g>
       <use xlink:href="#m475cee7334" x="438.922727" y="670.84" style="stroke: #000000; stroke-width: 0.8"/>
      </g>
     </g>
     <g id="text_7">
      <!-- 1500 -->
      <g transform="translate(426.197727 685.438437) scale(0.1 -0.1)">
       <use xlink:href="#DejaVuSans-31"/>
       <use xlink:href="#DejaVuSans-35" x="63.623047"/>
       <use xlink:href="#DejaVuSans-30" x="127.246094"/>
       <use xlink:href="#DejaVuSans-30" x="190.869141"/>
      </g>
     </g>
    </g>
    <g id="xtick_8">
     <g id="line2d_8">
      <g>
       <use xlink:href="#m475cee7334" x="490.458182" y="670.84" style="stroke: #000000; stroke-width: 0.8"/>
      </g>
     </g>
     <g id="text_8">
      <!-- 1750 -->
      <g transform="translate(477.733182 685.438437) scale(0.1 -0.1)">
       <use xlink:href="#DejaVuSans-31"/>
       <use xlink:href="#DejaVuSans-37" x="63.623047"/>
       <use xlink:href="#DejaVuSans-35" x="127.246094"/>
       <use xlink:href="#DejaVuSans-30" x="190.869141"/>
      </g>
     </g>
    </g>
    <g id="xtick_9">
     <g id="line2d_9">
      <g>
       <use xlink:href="#m475cee7334" x="541.993636" y="670.84" style="stroke: #000000; stroke-width: 0.8"/>
      </g>
     </g>
     <g id="text_9">
      <!-- 2000 -->
      <g transform="translate(529.268636 685.438437) scale(0.1 -0.1)">
       <use xlink:href="#DejaVuSans-32"/>
       <use xlink:href="#DejaVuSans-30" x="63.623047"/>
       <use xlink:href="#DejaVuSans-30" x="127.246094"/>
       <use xlink:href="#DejaVuSans-30" x="190.869141"/>
      </g>
     </g>
    </g>
    <g id="xtick_10">
     <g id="line2d_10">
      <g>
       <use xlink:href="#m475cee7334" x="593.529091" y="670.84" style="stroke: #000000; stroke-width: 0.8"/>
      </g>
     </g>
     <g id="text_10">
      <!-- 2250 -->
      <g transform="translate(580.804091 685.438437) scale(0.1 -0.1)">
       <use xlink:href="#DejaVuSans-32"/>
       <use xlink:href="#DejaVuSans-32" x="63.623047"/>
       <use xlink:href="#DejaVuSans-35" x="127.246094"/>
       <use xlink:href="#DejaVuSans-30" x="190.869141"/>
      </g>
     </g>
    </g>
    <g id="xtick_11">
     <g id="line2d_11">
      <g>
       <use xlink:href="#m475cee7334" x="645.064545" y="670.84" style="stroke: #000000; stroke-width: 0.8"/>
      </g>
     </g>
     <g id="text_11">
      <!-- 2500 -->
      <g transform="translate(632.339545 685.438437) scale(0.1 -0.1)">
       <use xlink:href="#DejaVuSans-32"/>
       <use xlink:href="#DejaVuSans-35" x="63.623047"/>
       <use xlink:href="#DejaVuSans-30" x="127.246094"/>
       <use xlink:href="#DejaVuSans-30" x="190.869141"/>
      </g>
     </g>
    </g>
    <g id="xtick_12">
     <g id="line2d_12">
      <g>
       <use xlink:href="#m475cee7334" x="696.6" y="670.84" style="stroke: #000000; stroke-width: 0.8"/>
      </g>
     </g>
     <g id="text_12">
      <!-- 2750 -->
      <g transform="translate(683.875 685.438437) scale(0.1 -0.1)">
       <use xlink:href="#DejaVuSans-32"/>
       <use xlink:href="#DejaVuSans-37" x="63.623047"/>
       <use xlink:href="#DejaVuSans-35" x="127.246094"/>
       <use xlink:href="#DejaVuSans-30" x="190.869141"/>
      </g>
     </g>
    </g>
    <g id="text_13">
     <!-- Time Steps -->
     <g transform="translate(363.0925 705.195312) scale(0.18 -0.18)">
      <defs>
       <path id="DejaVuSans-54" d="M -19 4666 
L 3928 4666 
L 3928 4134 
L 2272 4134 
L 2272 0 
L 1638 0 
L 1638 4134 
L -19 4134 
L -19 4666 
z
" transform="scale(0.015625)"/>
       <path id="DejaVuSans-69" d="M 603 3500 
L 1178 3500 
L 1178 0 
L 603 0 
L 603 3500 
z
M 603 4863 
L 1178 4863 
L 1178 4134 
L 603 4134 
L 603 4863 
z
" transform="scale(0.015625)"/>
       <path id="DejaVuSans-6d" d="M 3328 2828 
Q 3544 3216 3844 3400 
Q 4144 3584 4550 3584 
Q 5097 3584 5394 3201 
Q 5691 2819 5691 2113 
L 5691 0 
L 5113 0 
L 5113 2094 
Q 5113 2597 4934 2840 
Q 4756 3084 4391 3084 
Q 3944 3084 3684 2787 
Q 3425 2491 3425 1978 
L 3425 0 
L 2847 0 
L 2847 2094 
Q 2847 2600 2669 2842 
Q 2491 3084 2119 3084 
Q 1678 3084 1418 2786 
Q 1159 2488 1159 1978 
L 1159 0 
L 581 0 
L 581 3500 
L 1159 3500 
L 1159 2956 
Q 1356 3278 1631 3431 
Q 1906 3584 2284 3584 
Q 2666 3584 2933 3390 
Q 3200 3197 3328 2828 
z
" transform="scale(0.015625)"/>
       <path id="DejaVuSans-65" d="M 3597 1894 
L 3597 1613 
L 953 1613 
Q 991 1019 1311 708 
Q 1631 397 2203 397 
Q 2534 397 2845 478 
Q 3156 559 3463 722 
L 3463 178 
Q 3153 47 2828 -22 
Q 2503 -91 2169 -91 
Q 1331 -91 842 396 
Q 353 884 353 1716 
Q 353 2575 817 3079 
Q 1281 3584 2069 3584 
Q 2775 3584 3186 3129 
Q 3597 2675 3597 1894 
z
M 3022 2063 
Q 3016 2534 2758 2815 
Q 2500 3097 2075 3097 
Q 1594 3097 1305 2825 
Q 1016 2553 972 2059 
L 3022 2063 
z
" transform="scale(0.015625)"/>
       <path id="DejaVuSans-20" transform="scale(0.015625)"/>
       <path id="DejaVuSans-53" d="M 3425 4513 
L 3425 3897 
Q 3066 4069 2747 4153 
Q 2428 4238 2131 4238 
Q 1616 4238 1336 4038 
Q 1056 3838 1056 3469 
Q 1056 3159 1242 3001 
Q 1428 2844 1947 2747 
L 2328 2669 
Q 3034 2534 3370 2195 
Q 3706 1856 3706 1288 
Q 3706 609 3251 259 
Q 2797 -91 1919 -91 
Q 1588 -91 1214 -16 
Q 841 59 441 206 
L 441 856 
Q 825 641 1194 531 
Q 1563 422 1919 422 
Q 2459 422 2753 634 
Q 3047 847 3047 1241 
Q 3047 1584 2836 1778 
Q 2625 1972 2144 2069 
L 1759 2144 
Q 1053 2284 737 2584 
Q 422 2884 422 3419 
Q 422 4038 858 4394 
Q 1294 4750 2059 4750 
Q 2388 4750 2728 4690 
Q 3069 4631 3425 4513 
z
" transform="scale(0.015625)"/>
       <path id="DejaVuSans-74" d="M 1172 4494 
L 1172 3500 
L 2356 3500 
L 2356 3053 
L 1172 3053 
L 1172 1153 
Q 1172 725 1289 603 
Q 1406 481 1766 481 
L 2356 481 
L 2356 0 
L 1766 0 
Q 1100 0 847 248 
Q 594 497 594 1153 
L 594 3053 
L 172 3053 
L 172 3500 
L 594 3500 
L 594 4494 
L 1172 4494 
z
" transform="scale(0.015625)"/>
       <path id="DejaVuSans-70" d="M 1159 525 
L 1159 -1331 
L 581 -1331 
L 581 3500 
L 1159 3500 
L 1159 2969 
Q 1341 3281 1617 3432 
Q 1894 3584 2278 3584 
Q 2916 3584 3314 3078 
Q 3713 2572 3713 1747 
Q 3713 922 3314 415 
Q 2916 -91 2278 -91 
Q 1894 -91 1617 61 
Q 1341 213 1159 525 
z
M 3116 1747 
Q 3116 2381 2855 2742 
Q 2594 3103 2138 3103 
Q 1681 3103 1420 2742 
Q 1159 2381 1159 1747 
Q 1159 1113 1420 752 
Q 1681 391 2138 391 
Q 2594 391 2855 752 
Q 3116 1113 3116 1747 
z
" transform="scale(0.015625)"/>
       <path id="DejaVuSans-73" d="M 2834 3397 
L 2834 2853 
Q 2591 2978 2328 3040 
Q 2066 3103 1784 3103 
Q 1356 3103 1142 2972 
Q 928 2841 928 2578 
Q 928 2378 1081 2264 
Q 1234 2150 1697 2047 
L 1894 2003 
Q 2506 1872 2764 1633 
Q 3022 1394 3022 966 
Q 3022 478 2636 193 
Q 2250 -91 1575 -91 
Q 1294 -91 989 -36 
Q 684 19 347 128 
L 347 722 
Q 666 556 975 473 
Q 1284 391 1588 391 
Q 1994 391 2212 530 
Q 2431 669 2431 922 
Q 2431 1156 2273 1281 
Q 2116 1406 1581 1522 
L 1381 1569 
Q 847 1681 609 1914 
Q 372 2147 372 2553 
Q 372 3047 722 3315 
Q 1072 3584 1716 3584 
Q 2034 3584 2315 3537 
Q 2597 3491 2834 3397 
z
" transform="scale(0.015625)"/>
      </defs>
      <use xlink:href="#DejaVuSans-54"/>
      <use xlink:href="#DejaVuSans-69" x="57.958984"/>
      <use xlink:href="#DejaVuSans-6d" x="85.742188"/>
      <use xlink:href="#DejaVuSans-65" x="183.154297"/>
      <use xlink:href="#DejaVuSans-20" x="244.677734"/>
      <use xlink:href="#DejaVuSans-53" x="276.464844"/>
      <use xlink:href="#DejaVuSans-74" x="339.941406"/>
      <use xlink:href="#DejaVuSans-65" x="379.150391"/>
      <use xlink:href="#DejaVuSans-70" x="440.673828"/>
      <use xlink:href="#DejaVuSans-73" x="504.150391"/>
     </g>
    </g>
   </g>
   <g id="matplotlib.axis_2">
    <g id="ytick_1">
     <g id="line2d_13">
      <defs>
       <path id="m7ab454aa17" d="M 0 0 
L -3.5 0 
" style="stroke: #000000; stroke-width: 0.8"/>
      </defs>
      <g>
       <use xlink:href="#m7ab454aa17" x="129.71" y="621.361549" style="stroke: #000000; stroke-width: 0.8"/>
      </g>
     </g>
     <g id="text_14">
      <!-- SC-ST-LC -->
      <g transform="translate(78.064688 625.160768) scale(0.1 -0.1)">
       <defs>
        <path id="DejaVuSans-43" d="M 4122 4306 
L 4122 3641 
Q 3803 3938 3442 4084 
Q 3081 4231 2675 4231 
Q 1875 4231 1450 3742 
Q 1025 3253 1025 2328 
Q 1025 1406 1450 917 
Q 1875 428 2675 428 
Q 3081 428 3442 575 
Q 3803 722 4122 1019 
L 4122 359 
Q 3791 134 3420 21 
Q 3050 -91 2638 -91 
Q 1578 -91 968 557 
Q 359 1206 359 2328 
Q 359 3453 968 4101 
Q 1578 4750 2638 4750 
Q 3056 4750 3426 4639 
Q 3797 4528 4122 4306 
z
" transform="scale(0.015625)"/>
        <path id="DejaVuSans-2d" d="M 313 2009 
L 1997 2009 
L 1997 1497 
L 313 1497 
L 313 2009 
z
" transform="scale(0.015625)"/>
        <path id="DejaVuSans-4c" d="M 628 4666 
L 1259 4666 
L 1259 531 
L 3531 531 
L 3531 0 
L 628 0 
L 628 4666 
z
" transform="scale(0.015625)"/>
       </defs>
       <use xlink:href="#DejaVuSans-53"/>
       <use xlink:href="#DejaVuSans-43" x="63.476562"/>
       <use xlink:href="#DejaVuSans-2d" x="133.300781"/>
       <use xlink:href="#DejaVuSans-53" x="169.384766"/>
       <use xlink:href="#DejaVuSans-54" x="232.861328"/>
       <use xlink:href="#DejaVuSans-2d" x="284.820312"/>
       <use xlink:href="#DejaVuSans-4c" x="320.904297"/>
       <use xlink:href="#DejaVuSans-43" x="376.617188"/>
      </g>
     </g>
    </g>
    <g id="ytick_2">
     <g id="line2d_14">
      <g>
       <use xlink:href="#m7ab454aa17" x="129.71" y="570.873333" style="stroke: #000000; stroke-width: 0.8"/>
      </g>
     </g>
     <g id="text_15">
      <!-- SC-SC-SC -->
      <g transform="translate(75.500625 574.672552) scale(0.1 -0.1)">
       <use xlink:href="#DejaVuSans-53"/>
       <use xlink:href="#DejaVuSans-43" x="63.476562"/>
       <use xlink:href="#DejaVuSans-2d" x="133.300781"/>
       <use xlink:href="#DejaVuSans-53" x="169.384766"/>
       <use xlink:href="#DejaVuSans-43" x="232.861328"/>
       <use xlink:href="#DejaVuSans-2d" x="302.685547"/>
       <use xlink:href="#DejaVuSans-53" x="338.769531"/>
       <use xlink:href="#DejaVuSans-43" x="402.246094"/>
      </g>
     </g>
    </g>
    <g id="ytick_3">
     <g id="line2d_15">
      <g>
       <use xlink:href="#m7ab454aa17" x="129.71" y="520.385118" style="stroke: #000000; stroke-width: 0.8"/>
      </g>
     </g>
     <g id="text_16">
      <!-- ST-LC-ST -->
      <g transform="translate(78.939688 524.184337) scale(0.1 -0.1)">
       <use xlink:href="#DejaVuSans-53"/>
       <use xlink:href="#DejaVuSans-54" x="63.476562"/>
       <use xlink:href="#DejaVuSans-2d" x="115.435547"/>
       <use xlink:href="#DejaVuSans-4c" x="151.519531"/>
       <use xlink:href="#DejaVuSans-43" x="207.232422"/>
       <use xlink:href="#DejaVuSans-2d" x="277.056641"/>
       <use xlink:href="#DejaVuSans-53" x="313.140625"/>
       <use xlink:href="#DejaVuSans-54" x="376.617188"/>
      </g>
     </g>
    </g>
    <g id="text_17">
     <!-- Sequences -->
     <g transform="translate(67.757188 619.95849) rotate(-90) scale(0.18 -0.18)">
      <defs>
       <path id="DejaVuSans-71" d="M 947 1747 
Q 947 1113 1208 752 
Q 1469 391 1925 391 
Q 2381 391 2643 752 
Q 2906 1113 2906 1747 
Q 2906 2381 2643 2742 
Q 2381 3103 1925 3103 
Q 1469 3103 1208 2742 
Q 947 2381 947 1747 
z
M 2906 525 
Q 2725 213 2448 61 
Q 2172 -91 1784 -91 
Q 1150 -91 751 415 
Q 353 922 353 1747 
Q 353 2572 751 3078 
Q 1150 3584 1784 3584 
Q 2172 3584 2448 3432 
Q 2725 3281 2906 2969 
L 2906 3500 
L 3481 3500 
L 3481 -1331 
L 2906 -1331 
L 2906 525 
z
" transform="scale(0.015625)"/>
       <path id="DejaVuSans-75" d="M 544 1381 
L 544 3500 
L 1119 3500 
L 1119 1403 
Q 1119 906 1312 657 
Q 1506 409 1894 409 
Q 2359 409 2629 706 
Q 2900 1003 2900 1516 
L 2900 3500 
L 3475 3500 
L 3475 0 
L 2900 0 
L 2900 538 
Q 2691 219 2414 64 
Q 2138 -91 1772 -91 
Q 1169 -91 856 284 
Q 544 659 544 1381 
z
M 1991 3584 
L 1991 3584 
z
" transform="scale(0.015625)"/>
       <path id="DejaVuSans-6e" d="M 3513 2113 
L 3513 0 
L 2938 0 
L 2938 2094 
Q 2938 2591 2744 2837 
Q 2550 3084 2163 3084 
Q 1697 3084 1428 2787 
Q 1159 2491 1159 1978 
L 1159 0 
L 581 0 
L 581 3500 
L 1159 3500 
L 1159 2956 
Q 1366 3272 1645 3428 
Q 1925 3584 2291 3584 
Q 2894 3584 3203 3211 
Q 3513 2838 3513 2113 
z
" transform="scale(0.015625)"/>
       <path id="DejaVuSans-63" d="M 3122 3366 
L 3122 2828 
Q 2878 2963 2633 3030 
Q 2388 3097 2138 3097 
Q 1578 3097 1268 2742 
Q 959 2388 959 1747 
Q 959 1106 1268 751 
Q 1578 397 2138 397 
Q 2388 397 2633 464 
Q 2878 531 3122 666 
L 3122 134 
Q 2881 22 2623 -34 
Q 2366 -91 2075 -91 
Q 1284 -91 818 406 
Q 353 903 353 1747 
Q 353 2603 823 3093 
Q 1294 3584 2113 3584 
Q 2378 3584 2631 3529 
Q 2884 3475 3122 3366 
z
" transform="scale(0.015625)"/>
      </defs>
      <use xlink:href="#DejaVuSans-53"/>
      <use xlink:href="#DejaVuSans-65" x="63.476562"/>
      <use xlink:href="#DejaVuSans-71" x="125"/>
      <use xlink:href="#DejaVuSans-75" x="188.476562"/>
      <use xlink:href="#DejaVuSans-65" x="251.855469"/>
      <use xlink:href="#DejaVuSans-6e" x="313.378906"/>
      <use xlink:href="#DejaVuSans-63" x="376.757812"/>
      <use xlink:href="#DejaVuSans-65" x="431.738281"/>
      <use xlink:href="#DejaVuSans-73" x="493.261719"/>
     </g>
    </g>
   </g>
   <g id="EventCollection_1">
    <path d="M 253.395091 601.166263 
L 253.395091 641.556835 
" clip-path="url(#p969b5dcd71)" style="fill: none; stroke: #ff0000; stroke-width: 5"/>
   </g>
   <g id="EventCollection_2">
    <path d="M 397.694364 550.678047 
L 397.694364 591.06862 
" clip-path="url(#p969b5dcd71)" style="fill: none; stroke: #008000; stroke-width: 5"/>
   </g>
   <g id="EventCollection_3">
    <path d="M 603.836182 500.189832 
L 603.836182 540.580404 
" clip-path="url(#p969b5dcd71)" style="fill: none; stroke: #0000ff; stroke-width: 5"/>
   </g>
   <g id="patch_3">
    <path d="M 129.71 670.84 
L 129.71 470.906667 
" style="fill: none; stroke: #000000; stroke-width: 0.8; stroke-linejoin: miter; stroke-linecap: square"/>
   </g>
   <g id="patch_4">
    <path d="M 696.6 670.84 
L 696.6 470.906667 
" style="fill: none; stroke: #000000; stroke-width: 0.8; stroke-linejoin: miter; stroke-linecap: square"/>
   </g>
   <g id="patch_5">
    <path d="M 129.71 670.84 
L 696.6 670.84 
" style="fill: none; stroke: #000000; stroke-width: 0.8; stroke-linejoin: miter; stroke-linecap: square"/>
   </g>
   <g id="patch_6">
    <path d="M 129.71 470.906667 
L 696.6 470.906667 
" style="fill: none; stroke: #000000; stroke-width: 0.8; stroke-linejoin: miter; stroke-linecap: square"/>
   </g>
   <g id="text_18">
    <!-- Sequence Layer Output -->
    <g transform="translate(271.189375 464.906667) scale(0.24 -0.24)">
     <defs>
      <path id="DejaVuSans-61" d="M 2194 1759 
Q 1497 1759 1228 1600 
Q 959 1441 959 1056 
Q 959 750 1161 570 
Q 1363 391 1709 391 
Q 2188 391 2477 730 
Q 2766 1069 2766 1631 
L 2766 1759 
L 2194 1759 
z
M 3341 1997 
L 3341 0 
L 2766 0 
L 2766 531 
Q 2569 213 2275 61 
Q 1981 -91 1556 -91 
Q 1019 -91 701 211 
Q 384 513 384 1019 
Q 384 1609 779 1909 
Q 1175 2209 1959 2209 
L 2766 2209 
L 2766 2266 
Q 2766 2663 2505 2880 
Q 2244 3097 1772 3097 
Q 1472 3097 1187 3025 
Q 903 2953 641 2809 
L 641 3341 
Q 956 3463 1253 3523 
Q 1550 3584 1831 3584 
Q 2591 3584 2966 3190 
Q 3341 2797 3341 1997 
z
" transform="scale(0.015625)"/>
      <path id="DejaVuSans-79" d="M 2059 -325 
Q 1816 -950 1584 -1140 
Q 1353 -1331 966 -1331 
L 506 -1331 
L 506 -850 
L 844 -850 
Q 1081 -850 1212 -737 
Q 1344 -625 1503 -206 
L 1606 56 
L 191 3500 
L 800 3500 
L 1894 763 
L 2988 3500 
L 3597 3500 
L 2059 -325 
z
" transform="scale(0.015625)"/>
      <path id="DejaVuSans-72" d="M 2631 2963 
Q 2534 3019 2420 3045 
Q 2306 3072 2169 3072 
Q 1681 3072 1420 2755 
Q 1159 2438 1159 1844 
L 1159 0 
L 581 0 
L 581 3500 
L 1159 3500 
L 1159 2956 
Q 1341 3275 1631 3429 
Q 1922 3584 2338 3584 
Q 2397 3584 2469 3576 
Q 2541 3569 2628 3553 
L 2631 2963 
z
" transform="scale(0.015625)"/>
      <path id="DejaVuSans-4f" d="M 2522 4238 
Q 1834 4238 1429 3725 
Q 1025 3213 1025 2328 
Q 1025 1447 1429 934 
Q 1834 422 2522 422 
Q 3209 422 3611 934 
Q 4013 1447 4013 2328 
Q 4013 3213 3611 3725 
Q 3209 4238 2522 4238 
z
M 2522 4750 
Q 3503 4750 4090 4092 
Q 4678 3434 4678 2328 
Q 4678 1225 4090 567 
Q 3503 -91 2522 -91 
Q 1538 -91 948 565 
Q 359 1222 359 2328 
Q 359 3434 948 4092 
Q 1538 4750 2522 4750 
z
" transform="scale(0.015625)"/>
     </defs>
     <use xlink:href="#DejaVuSans-53"/>
     <use xlink:href="#DejaVuSans-65" x="63.476562"/>
     <use xlink:href="#DejaVuSans-71" x="125"/>
     <use xlink:href="#DejaVuSans-75" x="188.476562"/>
     <use xlink:href="#DejaVuSans-65" x="251.855469"/>
     <use xlink:href="#DejaVuSans-6e" x="313.378906"/>
     <use xlink:href="#DejaVuSans-63" x="376.757812"/>
     <use xlink:href="#DejaVuSans-65" x="431.738281"/>
     <use xlink:href="#DejaVuSans-20" x="493.261719"/>
     <use xlink:href="#DejaVuSans-4c" x="525.048828"/>
     <use xlink:href="#DejaVuSans-61" x="580.761719"/>
     <use xlink:href="#DejaVuSans-79" x="642.041016"/>
     <use xlink:href="#DejaVuSans-65" x="701.220703"/>
     <use xlink:href="#DejaVuSans-72" x="762.744141"/>
     <use xlink:href="#DejaVuSans-20" x="803.857422"/>
     <use xlink:href="#DejaVuSans-4f" x="835.644531"/>
     <use xlink:href="#DejaVuSans-75" x="914.355469"/>
     <use xlink:href="#DejaVuSans-74" x="977.734375"/>
     <use xlink:href="#DejaVuSans-70" x="1016.943359"/>
     <use xlink:href="#DejaVuSans-75" x="1080.419922"/>
     <use xlink:href="#DejaVuSans-74" x="1143.798828"/>
    </g>
   </g>
  </g>
  <g id="axes_2">
   <g id="patch_7">
    <path d="M 129.71 435.386667 
L 696.6 435.386667 
L 696.6 35.52 
L 129.71 35.52 
z
" style="fill: #ffffff"/>
   </g>
   <g id="matplotlib.axis_3"/>
   <g id="matplotlib.axis_4">
    <g id="ytick_4">
     <g id="line2d_16">
      <g>
       <use xlink:href="#m7ab454aa17" x="129.71" y="97.7582" style="stroke: #000000; stroke-width: 0.8"/>
      </g>
     </g>
     <g id="text_19">
      <!-- Small Triangle(ST) -->
      <g transform="translate(32.231875 101.557419) scale(0.1 -0.1)">
       <defs>
        <path id="DejaVuSans-6c" d="M 603 4863 
L 1178 4863 
L 1178 0 
L 603 0 
L 603 4863 
z
" transform="scale(0.015625)"/>
        <path id="DejaVuSans-67" d="M 2906 1791 
Q 2906 2416 2648 2759 
Q 2391 3103 1925 3103 
Q 1463 3103 1205 2759 
Q 947 2416 947 1791 
Q 947 1169 1205 825 
Q 1463 481 1925 481 
Q 2391 481 2648 825 
Q 2906 1169 2906 1791 
z
M 3481 434 
Q 3481 -459 3084 -895 
Q 2688 -1331 1869 -1331 
Q 1566 -1331 1297 -1286 
Q 1028 -1241 775 -1147 
L 775 -588 
Q 1028 -725 1275 -790 
Q 1522 -856 1778 -856 
Q 2344 -856 2625 -561 
Q 2906 -266 2906 331 
L 2906 616 
Q 2728 306 2450 153 
Q 2172 0 1784 0 
Q 1141 0 747 490 
Q 353 981 353 1791 
Q 353 2603 747 3093 
Q 1141 3584 1784 3584 
Q 2172 3584 2450 3431 
Q 2728 3278 2906 2969 
L 2906 3500 
L 3481 3500 
L 3481 434 
z
" transform="scale(0.015625)"/>
        <path id="DejaVuSans-28" d="M 1984 4856 
Q 1566 4138 1362 3434 
Q 1159 2731 1159 2009 
Q 1159 1288 1364 580 
Q 1569 -128 1984 -844 
L 1484 -844 
Q 1016 -109 783 600 
Q 550 1309 550 2009 
Q 550 2706 781 3412 
Q 1013 4119 1484 4856 
L 1984 4856 
z
" transform="scale(0.015625)"/>
        <path id="DejaVuSans-29" d="M 513 4856 
L 1013 4856 
Q 1481 4119 1714 3412 
Q 1947 2706 1947 2009 
Q 1947 1309 1714 600 
Q 1481 -109 1013 -844 
L 513 -844 
Q 928 -128 1133 580 
Q 1338 1288 1338 2009 
Q 1338 2731 1133 3434 
Q 928 4138 513 4856 
z
" transform="scale(0.015625)"/>
       </defs>
       <use xlink:href="#DejaVuSans-53"/>
       <use xlink:href="#DejaVuSans-6d" x="63.476562"/>
       <use xlink:href="#DejaVuSans-61" x="160.888672"/>
       <use xlink:href="#DejaVuSans-6c" x="222.167969"/>
       <use xlink:href="#DejaVuSans-6c" x="249.951172"/>
       <use xlink:href="#DejaVuSans-20" x="277.734375"/>
       <use xlink:href="#DejaVuSans-54" x="309.521484"/>
       <use xlink:href="#DejaVuSans-72" x="355.855469"/>
       <use xlink:href="#DejaVuSans-69" x="396.96875"/>
       <use xlink:href="#DejaVuSans-61" x="424.751953"/>
       <use xlink:href="#DejaVuSans-6e" x="486.03125"/>
       <use xlink:href="#DejaVuSans-67" x="549.410156"/>
       <use xlink:href="#DejaVuSans-6c" x="612.886719"/>
       <use xlink:href="#DejaVuSans-65" x="640.669922"/>
       <use xlink:href="#DejaVuSans-28" x="702.193359"/>
       <use xlink:href="#DejaVuSans-53" x="741.207031"/>
       <use xlink:href="#DejaVuSans-54" x="804.683594"/>
       <use xlink:href="#DejaVuSans-29" x="865.767578"/>
      </g>
     </g>
    </g>
    <g id="ytick_5">
     <g id="line2d_17">
      <g>
       <use xlink:href="#m7ab454aa17" x="129.71" y="152.836253" style="stroke: #000000; stroke-width: 0.8"/>
      </g>
     </g>
     <g id="text_20">
      <!-- Small Circle(SC) -->
      <g transform="translate(42.5475 156.635472) scale(0.1 -0.1)">
       <use xlink:href="#DejaVuSans-53"/>
       <use xlink:href="#DejaVuSans-6d" x="63.476562"/>
       <use xlink:href="#DejaVuSans-61" x="160.888672"/>
       <use xlink:href="#DejaVuSans-6c" x="222.167969"/>
       <use xlink:href="#DejaVuSans-6c" x="249.951172"/>
       <use xlink:href="#DejaVuSans-20" x="277.734375"/>
       <use xlink:href="#DejaVuSans-43" x="309.521484"/>
       <use xlink:href="#DejaVuSans-69" x="379.345703"/>
       <use xlink:href="#DejaVuSans-72" x="407.128906"/>
       <use xlink:href="#DejaVuSans-63" x="445.992188"/>
       <use xlink:href="#DejaVuSans-6c" x="500.972656"/>
       <use xlink:href="#DejaVuSans-65" x="528.755859"/>
       <use xlink:href="#DejaVuSans-28" x="590.279297"/>
       <use xlink:href="#DejaVuSans-53" x="629.292969"/>
       <use xlink:href="#DejaVuSans-43" x="692.769531"/>
       <use xlink:href="#DejaVuSans-29" x="762.59375"/>
      </g>
     </g>
    </g>
    <g id="ytick_6">
     <g id="line2d_18">
      <g>
       <use xlink:href="#m7ab454aa17" x="129.71" y="207.914307" style="stroke: #000000; stroke-width: 0.8"/>
      </g>
     </g>
     <g id="text_21">
      <!-- Small Sqaure(SS) -->
      <g transform="translate(36.056875 211.713525) scale(0.1 -0.1)">
       <use xlink:href="#DejaVuSans-53"/>
       <use xlink:href="#DejaVuSans-6d" x="63.476562"/>
       <use xlink:href="#DejaVuSans-61" x="160.888672"/>
       <use xlink:href="#DejaVuSans-6c" x="222.167969"/>
       <use xlink:href="#DejaVuSans-6c" x="249.951172"/>
       <use xlink:href="#DejaVuSans-20" x="277.734375"/>
       <use xlink:href="#DejaVuSans-53" x="309.521484"/>
       <use xlink:href="#DejaVuSans-71" x="372.998047"/>
       <use xlink:href="#DejaVuSans-61" x="436.474609"/>
       <use xlink:href="#DejaVuSans-75" x="497.753906"/>
       <use xlink:href="#DejaVuSans-72" x="561.132812"/>
       <use xlink:href="#DejaVuSans-65" x="599.996094"/>
       <use xlink:href="#DejaVuSans-28" x="661.519531"/>
       <use xlink:href="#DejaVuSans-53" x="700.533203"/>
       <use xlink:href="#DejaVuSans-53" x="764.009766"/>
       <use xlink:href="#DejaVuSans-29" x="827.486328"/>
      </g>
     </g>
    </g>
    <g id="ytick_7">
     <g id="line2d_19">
      <g>
       <use xlink:href="#m7ab454aa17" x="129.71" y="262.99236" style="stroke: #000000; stroke-width: 0.8"/>
      </g>
     </g>
     <g id="text_22">
      <!-- Large Triangle(LT) -->
      <g transform="translate(34.019375 266.791579) scale(0.1 -0.1)">
       <use xlink:href="#DejaVuSans-4c"/>
       <use xlink:href="#DejaVuSans-61" x="55.712891"/>
       <use xlink:href="#DejaVuSans-72" x="116.992188"/>
       <use xlink:href="#DejaVuSans-67" x="156.355469"/>
       <use xlink:href="#DejaVuSans-65" x="219.832031"/>
       <use xlink:href="#DejaVuSans-20" x="281.355469"/>
       <use xlink:href="#DejaVuSans-54" x="313.142578"/>
       <use xlink:href="#DejaVuSans-72" x="359.476562"/>
       <use xlink:href="#DejaVuSans-69" x="400.589844"/>
       <use xlink:href="#DejaVuSans-61" x="428.373047"/>
       <use xlink:href="#DejaVuSans-6e" x="489.652344"/>
       <use xlink:href="#DejaVuSans-67" x="553.03125"/>
       <use xlink:href="#DejaVuSans-6c" x="616.507812"/>
       <use xlink:href="#DejaVuSans-65" x="644.291016"/>
       <use xlink:href="#DejaVuSans-28" x="705.814453"/>
       <use xlink:href="#DejaVuSans-4c" x="744.828125"/>
       <use xlink:href="#DejaVuSans-54" x="786.791016"/>
       <use xlink:href="#DejaVuSans-29" x="847.875"/>
      </g>
     </g>
    </g>
    <g id="ytick_8">
     <g id="line2d_20">
      <g>
       <use xlink:href="#m7ab454aa17" x="129.71" y="318.070413" style="stroke: #000000; stroke-width: 0.8"/>
      </g>
     </g>
     <g id="text_23">
      <!-- Large Circle(LC) -->
      <g transform="translate(42.96 321.869632) scale(0.1 -0.1)">
       <use xlink:href="#DejaVuSans-4c"/>
       <use xlink:href="#DejaVuSans-61" x="55.712891"/>
       <use xlink:href="#DejaVuSans-72" x="116.992188"/>
       <use xlink:href="#DejaVuSans-67" x="156.355469"/>
       <use xlink:href="#DejaVuSans-65" x="219.832031"/>
       <use xlink:href="#DejaVuSans-20" x="281.355469"/>
       <use xlink:href="#DejaVuSans-43" x="313.142578"/>
       <use xlink:href="#DejaVuSans-69" x="382.966797"/>
       <use xlink:href="#DejaVuSans-72" x="410.75"/>
       <use xlink:href="#DejaVuSans-63" x="449.613281"/>
       <use xlink:href="#DejaVuSans-6c" x="504.59375"/>
       <use xlink:href="#DejaVuSans-65" x="532.376953"/>
       <use xlink:href="#DejaVuSans-28" x="593.900391"/>
       <use xlink:href="#DejaVuSans-4c" x="632.914062"/>
       <use xlink:href="#DejaVuSans-43" x="688.626953"/>
       <use xlink:href="#DejaVuSans-29" x="758.451172"/>
      </g>
     </g>
    </g>
    <g id="ytick_9">
     <g id="line2d_21">
      <g>
       <use xlink:href="#m7ab454aa17" x="129.71" y="373.148466" style="stroke: #000000; stroke-width: 0.8"/>
      </g>
     </g>
     <g id="text_24">
      <!-- Large Square(LS) -->
      <g transform="translate(36.469375 376.947685) scale(0.1 -0.1)">
       <use xlink:href="#DejaVuSans-4c"/>
       <use xlink:href="#DejaVuSans-61" x="55.712891"/>
       <use xlink:href="#DejaVuSans-72" x="116.992188"/>
       <use xlink:href="#DejaVuSans-67" x="156.355469"/>
       <use xlink:href="#DejaVuSans-65" x="219.832031"/>
       <use xlink:href="#DejaVuSans-20" x="281.355469"/>
       <use xlink:href="#DejaVuSans-53" x="313.142578"/>
       <use xlink:href="#DejaVuSans-71" x="376.619141"/>
       <use xlink:href="#DejaVuSans-75" x="440.095703"/>
       <use xlink:href="#DejaVuSans-61" x="503.474609"/>
       <use xlink:href="#DejaVuSans-72" x="564.753906"/>
       <use xlink:href="#DejaVuSans-65" x="603.617188"/>
       <use xlink:href="#DejaVuSans-28" x="665.140625"/>
       <use xlink:href="#DejaVuSans-4c" x="704.154297"/>
       <use xlink:href="#DejaVuSans-53" x="759.867188"/>
       <use xlink:href="#DejaVuSans-29" x="823.34375"/>
      </g>
     </g>
    </g>
    <g id="text_25">
     <!-- Shapes -->
     <g transform="translate(24.488437 268.325833) rotate(-90) scale(0.18 -0.18)">
      <defs>
       <path id="DejaVuSans-68" d="M 3513 2113 
L 3513 0 
L 2938 0 
L 2938 2094 
Q 2938 2591 2744 2837 
Q 2550 3084 2163 3084 
Q 1697 3084 1428 2787 
Q 1159 2491 1159 1978 
L 1159 0 
L 581 0 
L 581 4863 
L 1159 4863 
L 1159 2956 
Q 1366 3272 1645 3428 
Q 1925 3584 2291 3584 
Q 2894 3584 3203 3211 
Q 3513 2838 3513 2113 
z
" transform="scale(0.015625)"/>
      </defs>
      <use xlink:href="#DejaVuSans-53"/>
      <use xlink:href="#DejaVuSans-68" x="63.476562"/>
      <use xlink:href="#DejaVuSans-61" x="126.855469"/>
      <use xlink:href="#DejaVuSans-70" x="188.134766"/>
      <use xlink:href="#DejaVuSans-65" x="251.611328"/>
      <use xlink:href="#DejaVuSans-73" x="313.134766"/>
     </g>
    </g>
   </g>
   <g id="EventCollection_4">
    <path d="M 173.883247 119.789421 
L 173.883247 75.726979 
" clip-path="url(#p0ba7f53dd7)" style="fill: none; stroke: #ff0000; stroke-width: 5"/>
    <path d="M 210.694286 119.789421 
L 210.694286 75.726979 
" clip-path="url(#p0ba7f53dd7)" style="fill: none; stroke: #ff0000; stroke-width: 5"/>
    <path d="M 302.721883 119.789421 
L 302.721883 75.726979 
" clip-path="url(#p0ba7f53dd7)" style="fill: none; stroke: #ff0000; stroke-width: 5"/>
    <path d="M 449.966039 119.789421 
L 449.966039 75.726979 
" clip-path="url(#p0ba7f53dd7)" style="fill: none; stroke: #ff0000; stroke-width: 5"/>
    <path d="M 523.588117 119.789421 
L 523.588117 75.726979 
" clip-path="url(#p0ba7f53dd7)" style="fill: none; stroke: #ff0000; stroke-width: 5"/>
    <path d="M 560.399156 119.789421 
L 560.399156 75.726979 
" clip-path="url(#p0ba7f53dd7)" style="fill: none; stroke: #ff0000; stroke-width: 5"/>
    <path d="M 652.426753 119.789421 
L 652.426753 75.726979 
" clip-path="url(#p0ba7f53dd7)" style="fill: none; stroke: #ff0000; stroke-width: 5"/>
    <path d="M 670.832273 119.789421 
L 670.832273 75.726979 
" clip-path="url(#p0ba7f53dd7)" style="fill: none; stroke: #ff0000; stroke-width: 5"/>
   </g>
   <g id="EventCollection_5">
    <path d="M 155.477727 174.867475 
L 155.477727 130.805032 
" clip-path="url(#p0ba7f53dd7)" style="fill: none; stroke: #008000; stroke-width: 5"/>
    <path d="M 229.099805 174.867475 
L 229.099805 130.805032 
" clip-path="url(#p0ba7f53dd7)" style="fill: none; stroke: #008000; stroke-width: 5"/>
    <path d="M 284.316364 174.867475 
L 284.316364 130.805032 
" clip-path="url(#p0ba7f53dd7)" style="fill: none; stroke: #008000; stroke-width: 5"/>
    <path d="M 339.532922 174.867475 
L 339.532922 130.805032 
" clip-path="url(#p0ba7f53dd7)" style="fill: none; stroke: #008000; stroke-width: 5"/>
    <path d="M 357.938442 174.867475 
L 357.938442 130.805032 
" clip-path="url(#p0ba7f53dd7)" style="fill: none; stroke: #008000; stroke-width: 5"/>
    <path d="M 376.343961 174.867475 
L 376.343961 130.805032 
" clip-path="url(#p0ba7f53dd7)" style="fill: none; stroke: #008000; stroke-width: 5"/>
    <path d="M 578.804675 174.867475 
L 578.804675 130.805032 
" clip-path="url(#p0ba7f53dd7)" style="fill: none; stroke: #008000; stroke-width: 5"/>
    <path d="M 615.615714 174.867475 
L 615.615714 130.805032 
" clip-path="url(#p0ba7f53dd7)" style="fill: none; stroke: #008000; stroke-width: 5"/>
   </g>
   <g id="EventCollection_6">
    <path d="M 413.155 229.945528 
L 413.155 185.883085 
" clip-path="url(#p0ba7f53dd7)" style="fill: none; stroke: #0000ff; stroke-width: 5"/>
   </g>
   <g id="EventCollection_7">
    <path d="M 468.371558 285.023581 
L 468.371558 240.961139 
" clip-path="url(#p0ba7f53dd7)" style="fill: none; stroke: #bf00bf; stroke-width: 5"/>
    <path d="M 486.777078 285.023581 
L 486.777078 240.961139 
" clip-path="url(#p0ba7f53dd7)" style="fill: none; stroke: #bf00bf; stroke-width: 5"/>
   </g>
   <g id="EventCollection_8">
    <path d="M 247.505325 340.101635 
L 247.505325 296.039192 
" clip-path="url(#p0ba7f53dd7)" style="fill: none; stroke: #bfbf00; stroke-width: 5"/>
    <path d="M 541.993636 340.101635 
L 541.993636 296.039192 
" clip-path="url(#p0ba7f53dd7)" style="fill: none; stroke: #bfbf00; stroke-width: 5"/>
   </g>
   <g id="EventCollection_9">
    <path d="M 597.210195 395.179688 
L 597.210195 351.117245 
" clip-path="url(#p0ba7f53dd7)" style="fill: none; stroke: #00ffff; stroke-width: 5"/>
   </g>
   <g id="patch_8">
    <path d="M 129.71 435.386667 
L 129.71 35.52 
" style="fill: none; stroke: #000000; stroke-width: 0.8; stroke-linejoin: miter; stroke-linecap: square"/>
   </g>
   <g id="patch_9">
    <path d="M 696.6 435.386667 
L 696.6 35.52 
" style="fill: none; stroke: #000000; stroke-width: 0.8; stroke-linejoin: miter; stroke-linecap: square"/>
   </g>
   <g id="patch_10">
    <path d="M 129.71 435.386667 
L 696.6 435.386667 
" style="fill: none; stroke: #000000; stroke-width: 0.8; stroke-linejoin: miter; stroke-linecap: square"/>
   </g>
   <g id="patch_11">
    <path d="M 129.71 35.52 
L 696.6 35.52 
" style="fill: none; stroke: #000000; stroke-width: 0.8; stroke-linejoin: miter; stroke-linecap: square"/>
   </g>
   <g id="text_26">
    <!-- Shape Layer Output -->
    <g transform="translate(292.80625 29.52) scale(0.24 -0.24)">
     <use xlink:href="#DejaVuSans-53"/>
     <use xlink:href="#DejaVuSans-68" x="63.476562"/>
     <use xlink:href="#DejaVuSans-61" x="126.855469"/>
     <use xlink:href="#DejaVuSans-70" x="188.134766"/>
     <use xlink:href="#DejaVuSans-65" x="251.611328"/>
     <use xlink:href="#DejaVuSans-20" x="313.134766"/>
     <use xlink:href="#DejaVuSans-4c" x="344.921875"/>
     <use xlink:href="#DejaVuSans-61" x="400.634766"/>
     <use xlink:href="#DejaVuSans-79" x="461.914062"/>
     <use xlink:href="#DejaVuSans-65" x="521.09375"/>
     <use xlink:href="#DejaVuSans-72" x="582.617188"/>
     <use xlink:href="#DejaVuSans-20" x="623.730469"/>
     <use xlink:href="#DejaVuSans-4f" x="655.517578"/>
     <use xlink:href="#DejaVuSans-75" x="734.228516"/>
     <use xlink:href="#DejaVuSans-74" x="797.607422"/>
     <use xlink:href="#DejaVuSans-70" x="836.816406"/>
     <use xlink:href="#DejaVuSans-75" x="900.292969"/>
     <use xlink:href="#DejaVuSans-74" x="963.671875"/>
    </g>
   </g>
  </g>
 </g>
 <defs>
  <clipPath id="p969b5dcd71">
   <rect x="129.71" y="470.906667" width="566.89" height="199.933333"/>
  </clipPath>
  <clipPath id="p0ba7f53dd7">
   <rect x="129.71" y="35.52" width="566.89" height="399.866667"/>
  </clipPath>
 </defs>
</svg>
