<?xml version="1.0" encoding="utf-8" standalone="no"?>
<!DOCTYPE svg PUBLIC "-//W3C//DTD SVG 1.1//EN"
  "http://www.w3.org/Graphics/SVG/1.1/DTD/svg11.dtd">
<svg xmlns:xlink="http://www.w3.org/1999/xlink" width="216pt" height="216pt" viewBox="0 0 216 216" xmlns="http://www.w3.org/2000/svg" version="1.1">
 <metadata>
  <rdf:RDF xmlns:dc="http://purl.org/dc/elements/1.1/" xmlns:cc="http://creativecommons.org/ns#" xmlns:rdf="http://www.w3.org/1999/02/22-rdf-syntax-ns#">
   <cc:Work>
    <dc:type rdf:resource="http://purl.org/dc/dcmitype/StillImage"/>
    <dc:date>2024-01-31T12:11:53.634850</dc:date>
    <dc:format>image/svg+xml</dc:format>
    <dc:creator>
     <cc:Agent>
      <dc:title>Matplotlib v3.8.0, https://matplotlib.org/</dc:title>
     </cc:Agent>
    </dc:creator>
   </cc:Work>
  </rdf:RDF>
 </metadata>
 <defs>
  <style type="text/css">*{stroke-linejoin: round; stroke-linecap: butt}</style>
 </defs>
 <g id="figure_1">
  <g id="patch_1">
   <path d="M 0 216 
L 216 216 
L 216 0 
L 0 0 
z
" style="fill: #ffffff"/>
  </g>
  <g id="axes_1">
   <g id="EventCollection_1"/>
   <g id="EventCollection_2">
    <path d="M 40.044156 44.350588 
L 40.044156 40.397647 
" clip-path="url(#p04652080d5)" style="fill: none; stroke: #000000; stroke-width: 3"/>
    <path d="M 45.479221 44.350588 
L 45.479221 40.397647 
" clip-path="url(#p04652080d5)" style="fill: none; stroke: #000000; stroke-width: 3"/>
    <path d="M 50.914286 44.350588 
L 50.914286 40.397647 
" clip-path="url(#p04652080d5)" style="fill: none; stroke: #000000; stroke-width: 3"/>
    <path d="M 56.349351 44.350588 
L 56.349351 40.397647 
" clip-path="url(#p04652080d5)" style="fill: none; stroke: #000000; stroke-width: 3"/>
    <path d="M 61.784416 44.350588 
L 61.784416 40.397647 
" clip-path="url(#p04652080d5)" style="fill: none; stroke: #000000; stroke-width: 3"/>
    <path d="M 67.219481 44.350588 
L 67.219481 40.397647 
" clip-path="url(#p04652080d5)" style="fill: none; stroke: #000000; stroke-width: 3"/>
    <path d="M 99.82987 44.350588 
L 99.82987 40.397647 
" clip-path="url(#p04652080d5)" style="fill: none; stroke: #000000; stroke-width: 3"/>
    <path d="M 105.264935 44.350588 
L 105.264935 40.397647 
" clip-path="url(#p04652080d5)" style="fill: none; stroke: #000000; stroke-width: 3"/>
    <path d="M 110.7 44.350588 
L 110.7 40.397647 
" clip-path="url(#p04652080d5)" style="fill: none; stroke: #000000; stroke-width: 3"/>
    <path d="M 116.135065 44.350588 
L 116.135065 40.397647 
" clip-path="url(#p04652080d5)" style="fill: none; stroke: #000000; stroke-width: 3"/>
    <path d="M 148.745455 44.350588 
L 148.745455 40.397647 
" clip-path="url(#p04652080d5)" style="fill: none; stroke: #000000; stroke-width: 3"/>
    <path d="M 154.180519 44.350588 
L 154.180519 40.397647 
" clip-path="url(#p04652080d5)" style="fill: none; stroke: #000000; stroke-width: 3"/>
    <path d="M 159.615584 44.350588 
L 159.615584 40.397647 
" clip-path="url(#p04652080d5)" style="fill: none; stroke: #000000; stroke-width: 3"/>
    <path d="M 165.050649 44.350588 
L 165.050649 40.397647 
" clip-path="url(#p04652080d5)" style="fill: none; stroke: #000000; stroke-width: 3"/>
    <path d="M 170.485714 44.350588 
L 170.485714 40.397647 
" clip-path="url(#p04652080d5)" style="fill: none; stroke: #000000; stroke-width: 3"/>
    <path d="M 175.920779 44.350588 
L 175.920779 40.397647 
" clip-path="url(#p04652080d5)" style="fill: none; stroke: #000000; stroke-width: 3"/>
   </g>
   <g id="EventCollection_3">
    <path d="M 34.609091 49.291765 
L 34.609091 45.338824 
" clip-path="url(#p04652080d5)" style="fill: none; stroke: #000000; stroke-width: 3"/>
    <path d="M 40.044156 49.291765 
L 40.044156 45.338824 
" clip-path="url(#p04652080d5)" style="fill: none; stroke: #000000; stroke-width: 3"/>
    <path d="M 45.479221 49.291765 
L 45.479221 45.338824 
" clip-path="url(#p04652080d5)" style="fill: none; stroke: #000000; stroke-width: 3"/>
    <path d="M 61.784416 49.291765 
L 61.784416 45.338824 
" clip-path="url(#p04652080d5)" style="fill: none; stroke: #000000; stroke-width: 3"/>
    <path d="M 67.219481 49.291765 
L 67.219481 45.338824 
" clip-path="url(#p04652080d5)" style="fill: none; stroke: #000000; stroke-width: 3"/>
    <path d="M 72.654545 49.291765 
L 72.654545 45.338824 
" clip-path="url(#p04652080d5)" style="fill: none; stroke: #000000; stroke-width: 3"/>
    <path d="M 94.394805 49.291765 
L 94.394805 45.338824 
" clip-path="url(#p04652080d5)" style="fill: none; stroke: #000000; stroke-width: 3"/>
    <path d="M 99.82987 49.291765 
L 99.82987 45.338824 
" clip-path="url(#p04652080d5)" style="fill: none; stroke: #000000; stroke-width: 3"/>
    <path d="M 105.264935 49.291765 
L 105.264935 45.338824 
" clip-path="url(#p04652080d5)" style="fill: none; stroke: #000000; stroke-width: 3"/>
    <path d="M 110.7 49.291765 
L 110.7 45.338824 
" clip-path="url(#p04652080d5)" style="fill: none; stroke: #000000; stroke-width: 3"/>
    <path d="M 116.135065 49.291765 
L 116.135065 45.338824 
" clip-path="url(#p04652080d5)" style="fill: none; stroke: #000000; stroke-width: 3"/>
    <path d="M 121.57013 49.291765 
L 121.57013 45.338824 
" clip-path="url(#p04652080d5)" style="fill: none; stroke: #000000; stroke-width: 3"/>
    <path d="M 143.31039 49.291765 
L 143.31039 45.338824 
" clip-path="url(#p04652080d5)" style="fill: none; stroke: #000000; stroke-width: 3"/>
    <path d="M 148.745455 49.291765 
L 148.745455 45.338824 
" clip-path="url(#p04652080d5)" style="fill: none; stroke: #000000; stroke-width: 3"/>
    <path d="M 154.180519 49.291765 
L 154.180519 45.338824 
" clip-path="url(#p04652080d5)" style="fill: none; stroke: #000000; stroke-width: 3"/>
    <path d="M 170.485714 49.291765 
L 170.485714 45.338824 
" clip-path="url(#p04652080d5)" style="fill: none; stroke: #000000; stroke-width: 3"/>
    <path d="M 175.920779 49.291765 
L 175.920779 45.338824 
" clip-path="url(#p04652080d5)" style="fill: none; stroke: #000000; stroke-width: 3"/>
    <path d="M 181.355844 49.291765 
L 181.355844 45.338824 
" clip-path="url(#p04652080d5)" style="fill: none; stroke: #000000; stroke-width: 3"/>
   </g>
   <g id="EventCollection_4">
    <path d="M 34.609091 54.232941 
L 34.609091 50.28 
" clip-path="url(#p04652080d5)" style="fill: none; stroke: #000000; stroke-width: 3"/>
    <path d="M 40.044156 54.232941 
L 40.044156 50.28 
" clip-path="url(#p04652080d5)" style="fill: none; stroke: #000000; stroke-width: 3"/>
    <path d="M 67.219481 54.232941 
L 67.219481 50.28 
" clip-path="url(#p04652080d5)" style="fill: none; stroke: #000000; stroke-width: 3"/>
    <path d="M 72.654545 54.232941 
L 72.654545 50.28 
" clip-path="url(#p04652080d5)" style="fill: none; stroke: #000000; stroke-width: 3"/>
    <path d="M 88.95974 54.232941 
L 88.95974 50.28 
" clip-path="url(#p04652080d5)" style="fill: none; stroke: #000000; stroke-width: 3"/>
    <path d="M 94.394805 54.232941 
L 94.394805 50.28 
" clip-path="url(#p04652080d5)" style="fill: none; stroke: #000000; stroke-width: 3"/>
    <path d="M 121.57013 54.232941 
L 121.57013 50.28 
" clip-path="url(#p04652080d5)" style="fill: none; stroke: #000000; stroke-width: 3"/>
    <path d="M 127.005195 54.232941 
L 127.005195 50.28 
" clip-path="url(#p04652080d5)" style="fill: none; stroke: #000000; stroke-width: 3"/>
    <path d="M 143.31039 54.232941 
L 143.31039 50.28 
" clip-path="url(#p04652080d5)" style="fill: none; stroke: #000000; stroke-width: 3"/>
    <path d="M 148.745455 54.232941 
L 148.745455 50.28 
" clip-path="url(#p04652080d5)" style="fill: none; stroke: #000000; stroke-width: 3"/>
    <path d="M 175.920779 54.232941 
L 175.920779 50.28 
" clip-path="url(#p04652080d5)" style="fill: none; stroke: #000000; stroke-width: 3"/>
    <path d="M 181.355844 54.232941 
L 181.355844 50.28 
" clip-path="url(#p04652080d5)" style="fill: none; stroke: #000000; stroke-width: 3"/>
   </g>
   <g id="EventCollection_5">
    <path d="M 34.609091 59.174118 
L 34.609091 55.221176 
" clip-path="url(#p04652080d5)" style="fill: none; stroke: #000000; stroke-width: 3"/>
    <path d="M 72.654545 59.174118 
L 72.654545 55.221176 
" clip-path="url(#p04652080d5)" style="fill: none; stroke: #000000; stroke-width: 3"/>
    <path d="M 88.95974 59.174118 
L 88.95974 55.221176 
" clip-path="url(#p04652080d5)" style="fill: none; stroke: #000000; stroke-width: 3"/>
    <path d="M 94.394805 59.174118 
L 94.394805 55.221176 
" clip-path="url(#p04652080d5)" style="fill: none; stroke: #000000; stroke-width: 3"/>
    <path d="M 121.57013 59.174118 
L 121.57013 55.221176 
" clip-path="url(#p04652080d5)" style="fill: none; stroke: #000000; stroke-width: 3"/>
    <path d="M 127.005195 59.174118 
L 127.005195 55.221176 
" clip-path="url(#p04652080d5)" style="fill: none; stroke: #000000; stroke-width: 3"/>
    <path d="M 143.31039 59.174118 
L 143.31039 55.221176 
" clip-path="url(#p04652080d5)" style="fill: none; stroke: #000000; stroke-width: 3"/>
    <path d="M 181.355844 59.174118 
L 181.355844 55.221176 
" clip-path="url(#p04652080d5)" style="fill: none; stroke: #000000; stroke-width: 3"/>
   </g>
   <g id="EventCollection_6">
    <path d="M 34.609091 64.115294 
L 34.609091 60.162353 
" clip-path="url(#p04652080d5)" style="fill: none; stroke: #000000; stroke-width: 3"/>
    <path d="M 72.654545 64.115294 
L 72.654545 60.162353 
" clip-path="url(#p04652080d5)" style="fill: none; stroke: #000000; stroke-width: 3"/>
    <path d="M 88.95974 64.115294 
L 88.95974 60.162353 
" clip-path="url(#p04652080d5)" style="fill: none; stroke: #000000; stroke-width: 3"/>
    <path d="M 94.394805 64.115294 
L 94.394805 60.162353 
" clip-path="url(#p04652080d5)" style="fill: none; stroke: #000000; stroke-width: 3"/>
    <path d="M 121.57013 64.115294 
L 121.57013 60.162353 
" clip-path="url(#p04652080d5)" style="fill: none; stroke: #000000; stroke-width: 3"/>
    <path d="M 127.005195 64.115294 
L 127.005195 60.162353 
" clip-path="url(#p04652080d5)" style="fill: none; stroke: #000000; stroke-width: 3"/>
    <path d="M 143.31039 64.115294 
L 143.31039 60.162353 
" clip-path="url(#p04652080d5)" style="fill: none; stroke: #000000; stroke-width: 3"/>
    <path d="M 181.355844 64.115294 
L 181.355844 60.162353 
" clip-path="url(#p04652080d5)" style="fill: none; stroke: #000000; stroke-width: 3"/>
   </g>
   <g id="EventCollection_7">
    <path d="M 34.609091 69.056471 
L 34.609091 65.103529 
" clip-path="url(#p04652080d5)" style="fill: none; stroke: #000000; stroke-width: 3"/>
    <path d="M 40.044156 69.056471 
L 40.044156 65.103529 
" clip-path="url(#p04652080d5)" style="fill: none; stroke: #000000; stroke-width: 3"/>
    <path d="M 67.219481 69.056471 
L 67.219481 65.103529 
" clip-path="url(#p04652080d5)" style="fill: none; stroke: #000000; stroke-width: 3"/>
    <path d="M 72.654545 69.056471 
L 72.654545 65.103529 
" clip-path="url(#p04652080d5)" style="fill: none; stroke: #000000; stroke-width: 3"/>
    <path d="M 88.95974 69.056471 
L 88.95974 65.103529 
" clip-path="url(#p04652080d5)" style="fill: none; stroke: #000000; stroke-width: 3"/>
    <path d="M 94.394805 69.056471 
L 94.394805 65.103529 
" clip-path="url(#p04652080d5)" style="fill: none; stroke: #000000; stroke-width: 3"/>
    <path d="M 121.57013 69.056471 
L 121.57013 65.103529 
" clip-path="url(#p04652080d5)" style="fill: none; stroke: #000000; stroke-width: 3"/>
    <path d="M 127.005195 69.056471 
L 127.005195 65.103529 
" clip-path="url(#p04652080d5)" style="fill: none; stroke: #000000; stroke-width: 3"/>
    <path d="M 143.31039 69.056471 
L 143.31039 65.103529 
" clip-path="url(#p04652080d5)" style="fill: none; stroke: #000000; stroke-width: 3"/>
    <path d="M 148.745455 69.056471 
L 148.745455 65.103529 
" clip-path="url(#p04652080d5)" style="fill: none; stroke: #000000; stroke-width: 3"/>
    <path d="M 175.920779 69.056471 
L 175.920779 65.103529 
" clip-path="url(#p04652080d5)" style="fill: none; stroke: #000000; stroke-width: 3"/>
    <path d="M 181.355844 69.056471 
L 181.355844 65.103529 
" clip-path="url(#p04652080d5)" style="fill: none; stroke: #000000; stroke-width: 3"/>
   </g>
   <g id="EventCollection_8">
    <path d="M 34.609091 73.997647 
L 34.609091 70.044706 
" clip-path="url(#p04652080d5)" style="fill: none; stroke: #000000; stroke-width: 3"/>
    <path d="M 40.044156 73.997647 
L 40.044156 70.044706 
" clip-path="url(#p04652080d5)" style="fill: none; stroke: #000000; stroke-width: 3"/>
    <path d="M 45.479221 73.997647 
L 45.479221 70.044706 
" clip-path="url(#p04652080d5)" style="fill: none; stroke: #000000; stroke-width: 3"/>
    <path d="M 61.784416 73.997647 
L 61.784416 70.044706 
" clip-path="url(#p04652080d5)" style="fill: none; stroke: #000000; stroke-width: 3"/>
    <path d="M 67.219481 73.997647 
L 67.219481 70.044706 
" clip-path="url(#p04652080d5)" style="fill: none; stroke: #000000; stroke-width: 3"/>
    <path d="M 72.654545 73.997647 
L 72.654545 70.044706 
" clip-path="url(#p04652080d5)" style="fill: none; stroke: #000000; stroke-width: 3"/>
    <path d="M 94.394805 73.997647 
L 94.394805 70.044706 
" clip-path="url(#p04652080d5)" style="fill: none; stroke: #000000; stroke-width: 3"/>
    <path d="M 99.82987 73.997647 
L 99.82987 70.044706 
" clip-path="url(#p04652080d5)" style="fill: none; stroke: #000000; stroke-width: 3"/>
    <path d="M 105.264935 73.997647 
L 105.264935 70.044706 
" clip-path="url(#p04652080d5)" style="fill: none; stroke: #000000; stroke-width: 3"/>
    <path d="M 110.7 73.997647 
L 110.7 70.044706 
" clip-path="url(#p04652080d5)" style="fill: none; stroke: #000000; stroke-width: 3"/>
    <path d="M 116.135065 73.997647 
L 116.135065 70.044706 
" clip-path="url(#p04652080d5)" style="fill: none; stroke: #000000; stroke-width: 3"/>
    <path d="M 121.57013 73.997647 
L 121.57013 70.044706 
" clip-path="url(#p04652080d5)" style="fill: none; stroke: #000000; stroke-width: 3"/>
    <path d="M 143.31039 73.997647 
L 143.31039 70.044706 
" clip-path="url(#p04652080d5)" style="fill: none; stroke: #000000; stroke-width: 3"/>
    <path d="M 148.745455 73.997647 
L 148.745455 70.044706 
" clip-path="url(#p04652080d5)" style="fill: none; stroke: #000000; stroke-width: 3"/>
    <path d="M 154.180519 73.997647 
L 154.180519 70.044706 
" clip-path="url(#p04652080d5)" style="fill: none; stroke: #000000; stroke-width: 3"/>
    <path d="M 170.485714 73.997647 
L 170.485714 70.044706 
" clip-path="url(#p04652080d5)" style="fill: none; stroke: #000000; stroke-width: 3"/>
    <path d="M 175.920779 73.997647 
L 175.920779 70.044706 
" clip-path="url(#p04652080d5)" style="fill: none; stroke: #000000; stroke-width: 3"/>
    <path d="M 181.355844 73.997647 
L 181.355844 70.044706 
" clip-path="url(#p04652080d5)" style="fill: none; stroke: #000000; stroke-width: 3"/>
   </g>
   <g id="EventCollection_9">
    <path d="M 40.044156 78.938824 
L 40.044156 74.985882 
" clip-path="url(#p04652080d5)" style="fill: none; stroke: #000000; stroke-width: 3"/>
    <path d="M 45.479221 78.938824 
L 45.479221 74.985882 
" clip-path="url(#p04652080d5)" style="fill: none; stroke: #000000; stroke-width: 3"/>
    <path d="M 50.914286 78.938824 
L 50.914286 74.985882 
" clip-path="url(#p04652080d5)" style="fill: none; stroke: #000000; stroke-width: 3"/>
    <path d="M 56.349351 78.938824 
L 56.349351 74.985882 
" clip-path="url(#p04652080d5)" style="fill: none; stroke: #000000; stroke-width: 3"/>
    <path d="M 61.784416 78.938824 
L 61.784416 74.985882 
" clip-path="url(#p04652080d5)" style="fill: none; stroke: #000000; stroke-width: 3"/>
    <path d="M 67.219481 78.938824 
L 67.219481 74.985882 
" clip-path="url(#p04652080d5)" style="fill: none; stroke: #000000; stroke-width: 3"/>
    <path d="M 99.82987 78.938824 
L 99.82987 74.985882 
" clip-path="url(#p04652080d5)" style="fill: none; stroke: #000000; stroke-width: 3"/>
    <path d="M 105.264935 78.938824 
L 105.264935 74.985882 
" clip-path="url(#p04652080d5)" style="fill: none; stroke: #000000; stroke-width: 3"/>
    <path d="M 110.7 78.938824 
L 110.7 74.985882 
" clip-path="url(#p04652080d5)" style="fill: none; stroke: #000000; stroke-width: 3"/>
    <path d="M 116.135065 78.938824 
L 116.135065 74.985882 
" clip-path="url(#p04652080d5)" style="fill: none; stroke: #000000; stroke-width: 3"/>
    <path d="M 154.180519 78.938824 
L 154.180519 74.985882 
" clip-path="url(#p04652080d5)" style="fill: none; stroke: #000000; stroke-width: 3"/>
    <path d="M 159.615584 78.938824 
L 159.615584 74.985882 
" clip-path="url(#p04652080d5)" style="fill: none; stroke: #000000; stroke-width: 3"/>
    <path d="M 165.050649 78.938824 
L 165.050649 74.985882 
" clip-path="url(#p04652080d5)" style="fill: none; stroke: #000000; stroke-width: 3"/>
    <path d="M 170.485714 78.938824 
L 170.485714 74.985882 
" clip-path="url(#p04652080d5)" style="fill: none; stroke: #000000; stroke-width: 3"/>
   </g>
   <g id="EventCollection_10"/>
   <g id="EventCollection_11"/>
   <g id="EventCollection_12">
    <path d="M 88.95974 93.762353 
L 88.95974 89.809412 
" clip-path="url(#p04652080d5)" style="fill: none; stroke: #000000; stroke-width: 3"/>
    <path d="M 94.394805 93.762353 
L 94.394805 89.809412 
" clip-path="url(#p04652080d5)" style="fill: none; stroke: #000000; stroke-width: 3"/>
    <path d="M 99.82987 93.762353 
L 99.82987 89.809412 
" clip-path="url(#p04652080d5)" style="fill: none; stroke: #000000; stroke-width: 3"/>
    <path d="M 105.264935 93.762353 
L 105.264935 89.809412 
" clip-path="url(#p04652080d5)" style="fill: none; stroke: #000000; stroke-width: 3"/>
    <path d="M 110.7 93.762353 
L 110.7 89.809412 
" clip-path="url(#p04652080d5)" style="fill: none; stroke: #000000; stroke-width: 3"/>
    <path d="M 116.135065 93.762353 
L 116.135065 89.809412 
" clip-path="url(#p04652080d5)" style="fill: none; stroke: #000000; stroke-width: 3"/>
    <path d="M 121.57013 93.762353 
L 121.57013 89.809412 
" clip-path="url(#p04652080d5)" style="fill: none; stroke: #000000; stroke-width: 3"/>
    <path d="M 127.005195 93.762353 
L 127.005195 89.809412 
" clip-path="url(#p04652080d5)" style="fill: none; stroke: #000000; stroke-width: 3"/>
   </g>
   <g id="EventCollection_13">
    <path d="M 88.95974 98.703529 
L 88.95974 94.750588 
" clip-path="url(#p04652080d5)" style="fill: none; stroke: #000000; stroke-width: 3"/>
    <path d="M 94.394805 98.703529 
L 94.394805 94.750588 
" clip-path="url(#p04652080d5)" style="fill: none; stroke: #000000; stroke-width: 3"/>
    <path d="M 105.264935 98.703529 
L 105.264935 94.750588 
" clip-path="url(#p04652080d5)" style="fill: none; stroke: #000000; stroke-width: 3"/>
    <path d="M 110.7 98.703529 
L 110.7 94.750588 
" clip-path="url(#p04652080d5)" style="fill: none; stroke: #000000; stroke-width: 3"/>
    <path d="M 121.57013 98.703529 
L 121.57013 94.750588 
" clip-path="url(#p04652080d5)" style="fill: none; stroke: #000000; stroke-width: 3"/>
    <path d="M 127.005195 98.703529 
L 127.005195 94.750588 
" clip-path="url(#p04652080d5)" style="fill: none; stroke: #000000; stroke-width: 3"/>
   </g>
   <g id="EventCollection_14">
    <path d="M 88.95974 103.644706 
L 88.95974 99.691765 
" clip-path="url(#p04652080d5)" style="fill: none; stroke: #000000; stroke-width: 3"/>
    <path d="M 127.005195 103.644706 
L 127.005195 99.691765 
" clip-path="url(#p04652080d5)" style="fill: none; stroke: #000000; stroke-width: 3"/>
   </g>
   <g id="EventCollection_15">
    <path d="M 88.95974 108.585882 
L 88.95974 104.632941 
" clip-path="url(#p04652080d5)" style="fill: none; stroke: #000000; stroke-width: 3"/>
    <path d="M 94.394805 108.585882 
L 94.394805 104.632941 
" clip-path="url(#p04652080d5)" style="fill: none; stroke: #000000; stroke-width: 3"/>
    <path d="M 121.57013 108.585882 
L 121.57013 104.632941 
" clip-path="url(#p04652080d5)" style="fill: none; stroke: #000000; stroke-width: 3"/>
    <path d="M 127.005195 108.585882 
L 127.005195 104.632941 
" clip-path="url(#p04652080d5)" style="fill: none; stroke: #000000; stroke-width: 3"/>
   </g>
   <g id="EventCollection_16">
    <path d="M 88.95974 113.527059 
L 88.95974 109.574118 
" clip-path="url(#p04652080d5)" style="fill: none; stroke: #000000; stroke-width: 3"/>
    <path d="M 94.394805 113.527059 
L 94.394805 109.574118 
" clip-path="url(#p04652080d5)" style="fill: none; stroke: #000000; stroke-width: 3"/>
    <path d="M 121.57013 113.527059 
L 121.57013 109.574118 
" clip-path="url(#p04652080d5)" style="fill: none; stroke: #000000; stroke-width: 3"/>
    <path d="M 127.005195 113.527059 
L 127.005195 109.574118 
" clip-path="url(#p04652080d5)" style="fill: none; stroke: #000000; stroke-width: 3"/>
   </g>
   <g id="EventCollection_17">
    <path d="M 88.95974 118.468235 
L 88.95974 114.515294 
" clip-path="url(#p04652080d5)" style="fill: none; stroke: #000000; stroke-width: 3"/>
    <path d="M 127.005195 118.468235 
L 127.005195 114.515294 
" clip-path="url(#p04652080d5)" style="fill: none; stroke: #000000; stroke-width: 3"/>
   </g>
   <g id="EventCollection_18">
    <path d="M 88.95974 123.409412 
L 88.95974 119.456471 
" clip-path="url(#p04652080d5)" style="fill: none; stroke: #000000; stroke-width: 3"/>
    <path d="M 94.394805 123.409412 
L 94.394805 119.456471 
" clip-path="url(#p04652080d5)" style="fill: none; stroke: #000000; stroke-width: 3"/>
    <path d="M 105.264935 123.409412 
L 105.264935 119.456471 
" clip-path="url(#p04652080d5)" style="fill: none; stroke: #000000; stroke-width: 3"/>
    <path d="M 110.7 123.409412 
L 110.7 119.456471 
" clip-path="url(#p04652080d5)" style="fill: none; stroke: #000000; stroke-width: 3"/>
    <path d="M 121.57013 123.409412 
L 121.57013 119.456471 
" clip-path="url(#p04652080d5)" style="fill: none; stroke: #000000; stroke-width: 3"/>
    <path d="M 127.005195 123.409412 
L 127.005195 119.456471 
" clip-path="url(#p04652080d5)" style="fill: none; stroke: #000000; stroke-width: 3"/>
   </g>
   <g id="EventCollection_19">
    <path d="M 88.95974 128.350588 
L 88.95974 124.397647 
" clip-path="url(#p04652080d5)" style="fill: none; stroke: #000000; stroke-width: 3"/>
    <path d="M 94.394805 128.350588 
L 94.394805 124.397647 
" clip-path="url(#p04652080d5)" style="fill: none; stroke: #000000; stroke-width: 3"/>
    <path d="M 99.82987 128.350588 
L 99.82987 124.397647 
" clip-path="url(#p04652080d5)" style="fill: none; stroke: #000000; stroke-width: 3"/>
    <path d="M 105.264935 128.350588 
L 105.264935 124.397647 
" clip-path="url(#p04652080d5)" style="fill: none; stroke: #000000; stroke-width: 3"/>
    <path d="M 110.7 128.350588 
L 110.7 124.397647 
" clip-path="url(#p04652080d5)" style="fill: none; stroke: #000000; stroke-width: 3"/>
    <path d="M 116.135065 128.350588 
L 116.135065 124.397647 
" clip-path="url(#p04652080d5)" style="fill: none; stroke: #000000; stroke-width: 3"/>
    <path d="M 121.57013 128.350588 
L 121.57013 124.397647 
" clip-path="url(#p04652080d5)" style="fill: none; stroke: #000000; stroke-width: 3"/>
    <path d="M 127.005195 128.350588 
L 127.005195 124.397647 
" clip-path="url(#p04652080d5)" style="fill: none; stroke: #000000; stroke-width: 3"/>
   </g>
   <g id="EventCollection_20"/>
   <g id="EventCollection_21">
    <path d="M 99.82987 138.232941 
L 99.82987 134.28 
" clip-path="url(#p04652080d5)" style="fill: none; stroke: #000000; stroke-width: 3"/>
    <path d="M 105.264935 138.232941 
L 105.264935 134.28 
" clip-path="url(#p04652080d5)" style="fill: none; stroke: #000000; stroke-width: 3"/>
    <path d="M 110.7 138.232941 
L 110.7 134.28 
" clip-path="url(#p04652080d5)" style="fill: none; stroke: #000000; stroke-width: 3"/>
    <path d="M 116.135065 138.232941 
L 116.135065 134.28 
" clip-path="url(#p04652080d5)" style="fill: none; stroke: #000000; stroke-width: 3"/>
    <path d="M 159.615584 138.232941 
L 159.615584 134.28 
" clip-path="url(#p04652080d5)" style="fill: none; stroke: #000000; stroke-width: 3"/>
    <path d="M 165.050649 138.232941 
L 165.050649 134.28 
" clip-path="url(#p04652080d5)" style="fill: none; stroke: #000000; stroke-width: 3"/>
   </g>
   <g id="EventCollection_22">
    <path d="M 99.82987 143.174118 
L 99.82987 139.221176 
" clip-path="url(#p04652080d5)" style="fill: none; stroke: #000000; stroke-width: 3"/>
    <path d="M 105.264935 143.174118 
L 105.264935 139.221176 
" clip-path="url(#p04652080d5)" style="fill: none; stroke: #000000; stroke-width: 3"/>
    <path d="M 110.7 143.174118 
L 110.7 139.221176 
" clip-path="url(#p04652080d5)" style="fill: none; stroke: #000000; stroke-width: 3"/>
    <path d="M 116.135065 143.174118 
L 116.135065 139.221176 
" clip-path="url(#p04652080d5)" style="fill: none; stroke: #000000; stroke-width: 3"/>
    <path d="M 154.180519 143.174118 
L 154.180519 139.221176 
" clip-path="url(#p04652080d5)" style="fill: none; stroke: #000000; stroke-width: 3"/>
    <path d="M 159.615584 143.174118 
L 159.615584 139.221176 
" clip-path="url(#p04652080d5)" style="fill: none; stroke: #000000; stroke-width: 3"/>
    <path d="M 165.050649 143.174118 
L 165.050649 139.221176 
" clip-path="url(#p04652080d5)" style="fill: none; stroke: #000000; stroke-width: 3"/>
    <path d="M 170.485714 143.174118 
L 170.485714 139.221176 
" clip-path="url(#p04652080d5)" style="fill: none; stroke: #000000; stroke-width: 3"/>
   </g>
   <g id="EventCollection_23">
    <path d="M 45.479221 148.115294 
L 45.479221 144.162353 
" clip-path="url(#p04652080d5)" style="fill: none; stroke: #000000; stroke-width: 3"/>
    <path d="M 50.914286 148.115294 
L 50.914286 144.162353 
" clip-path="url(#p04652080d5)" style="fill: none; stroke: #000000; stroke-width: 3"/>
    <path d="M 56.349351 148.115294 
L 56.349351 144.162353 
" clip-path="url(#p04652080d5)" style="fill: none; stroke: #000000; stroke-width: 3"/>
    <path d="M 61.784416 148.115294 
L 61.784416 144.162353 
" clip-path="url(#p04652080d5)" style="fill: none; stroke: #000000; stroke-width: 3"/>
    <path d="M 94.394805 148.115294 
L 94.394805 144.162353 
" clip-path="url(#p04652080d5)" style="fill: none; stroke: #000000; stroke-width: 3"/>
    <path d="M 99.82987 148.115294 
L 99.82987 144.162353 
" clip-path="url(#p04652080d5)" style="fill: none; stroke: #000000; stroke-width: 3"/>
    <path d="M 116.135065 148.115294 
L 116.135065 144.162353 
" clip-path="url(#p04652080d5)" style="fill: none; stroke: #000000; stroke-width: 3"/>
    <path d="M 121.57013 148.115294 
L 121.57013 144.162353 
" clip-path="url(#p04652080d5)" style="fill: none; stroke: #000000; stroke-width: 3"/>
    <path d="M 154.180519 148.115294 
L 154.180519 144.162353 
" clip-path="url(#p04652080d5)" style="fill: none; stroke: #000000; stroke-width: 3"/>
    <path d="M 170.485714 148.115294 
L 170.485714 144.162353 
" clip-path="url(#p04652080d5)" style="fill: none; stroke: #000000; stroke-width: 3"/>
   </g>
   <g id="EventCollection_24">
    <path d="M 45.479221 153.056471 
L 45.479221 149.103529 
" clip-path="url(#p04652080d5)" style="fill: none; stroke: #000000; stroke-width: 3"/>
    <path d="M 61.784416 153.056471 
L 61.784416 149.103529 
" clip-path="url(#p04652080d5)" style="fill: none; stroke: #000000; stroke-width: 3"/>
    <path d="M 94.394805 153.056471 
L 94.394805 149.103529 
" clip-path="url(#p04652080d5)" style="fill: none; stroke: #000000; stroke-width: 3"/>
    <path d="M 99.82987 153.056471 
L 99.82987 149.103529 
" clip-path="url(#p04652080d5)" style="fill: none; stroke: #000000; stroke-width: 3"/>
    <path d="M 116.135065 153.056471 
L 116.135065 149.103529 
" clip-path="url(#p04652080d5)" style="fill: none; stroke: #000000; stroke-width: 3"/>
    <path d="M 121.57013 153.056471 
L 121.57013 149.103529 
" clip-path="url(#p04652080d5)" style="fill: none; stroke: #000000; stroke-width: 3"/>
    <path d="M 148.745455 153.056471 
L 148.745455 149.103529 
" clip-path="url(#p04652080d5)" style="fill: none; stroke: #000000; stroke-width: 3"/>
    <path d="M 154.180519 153.056471 
L 154.180519 149.103529 
" clip-path="url(#p04652080d5)" style="fill: none; stroke: #000000; stroke-width: 3"/>
    <path d="M 170.485714 153.056471 
L 170.485714 149.103529 
" clip-path="url(#p04652080d5)" style="fill: none; stroke: #000000; stroke-width: 3"/>
    <path d="M 175.920779 153.056471 
L 175.920779 149.103529 
" clip-path="url(#p04652080d5)" style="fill: none; stroke: #000000; stroke-width: 3"/>
   </g>
   <g id="EventCollection_25">
    <path d="M 40.044156 157.997647 
L 40.044156 154.044706 
" clip-path="url(#p04652080d5)" style="fill: none; stroke: #000000; stroke-width: 3"/>
    <path d="M 45.479221 157.997647 
L 45.479221 154.044706 
" clip-path="url(#p04652080d5)" style="fill: none; stroke: #000000; stroke-width: 3"/>
    <path d="M 61.784416 157.997647 
L 61.784416 154.044706 
" clip-path="url(#p04652080d5)" style="fill: none; stroke: #000000; stroke-width: 3"/>
    <path d="M 67.219481 157.997647 
L 67.219481 154.044706 
" clip-path="url(#p04652080d5)" style="fill: none; stroke: #000000; stroke-width: 3"/>
    <path d="M 88.95974 157.997647 
L 88.95974 154.044706 
" clip-path="url(#p04652080d5)" style="fill: none; stroke: #000000; stroke-width: 3"/>
    <path d="M 94.394805 157.997647 
L 94.394805 154.044706 
" clip-path="url(#p04652080d5)" style="fill: none; stroke: #000000; stroke-width: 3"/>
    <path d="M 121.57013 157.997647 
L 121.57013 154.044706 
" clip-path="url(#p04652080d5)" style="fill: none; stroke: #000000; stroke-width: 3"/>
    <path d="M 127.005195 157.997647 
L 127.005195 154.044706 
" clip-path="url(#p04652080d5)" style="fill: none; stroke: #000000; stroke-width: 3"/>
    <path d="M 148.745455 157.997647 
L 148.745455 154.044706 
" clip-path="url(#p04652080d5)" style="fill: none; stroke: #000000; stroke-width: 3"/>
    <path d="M 175.920779 157.997647 
L 175.920779 154.044706 
" clip-path="url(#p04652080d5)" style="fill: none; stroke: #000000; stroke-width: 3"/>
   </g>
   <g id="EventCollection_26">
    <path d="M 40.044156 162.938824 
L 40.044156 158.985882 
" clip-path="url(#p04652080d5)" style="fill: none; stroke: #000000; stroke-width: 3"/>
    <path d="M 45.479221 162.938824 
L 45.479221 158.985882 
" clip-path="url(#p04652080d5)" style="fill: none; stroke: #000000; stroke-width: 3"/>
    <path d="M 61.784416 162.938824 
L 61.784416 158.985882 
" clip-path="url(#p04652080d5)" style="fill: none; stroke: #000000; stroke-width: 3"/>
    <path d="M 67.219481 162.938824 
L 67.219481 158.985882 
" clip-path="url(#p04652080d5)" style="fill: none; stroke: #000000; stroke-width: 3"/>
    <path d="M 88.95974 162.938824 
L 88.95974 158.985882 
" clip-path="url(#p04652080d5)" style="fill: none; stroke: #000000; stroke-width: 3"/>
    <path d="M 94.394805 162.938824 
L 94.394805 158.985882 
" clip-path="url(#p04652080d5)" style="fill: none; stroke: #000000; stroke-width: 3"/>
    <path d="M 121.57013 162.938824 
L 121.57013 158.985882 
" clip-path="url(#p04652080d5)" style="fill: none; stroke: #000000; stroke-width: 3"/>
    <path d="M 127.005195 162.938824 
L 127.005195 158.985882 
" clip-path="url(#p04652080d5)" style="fill: none; stroke: #000000; stroke-width: 3"/>
    <path d="M 143.31039 162.938824 
L 143.31039 158.985882 
" clip-path="url(#p04652080d5)" style="fill: none; stroke: #000000; stroke-width: 3"/>
    <path d="M 148.745455 162.938824 
L 148.745455 158.985882 
" clip-path="url(#p04652080d5)" style="fill: none; stroke: #000000; stroke-width: 3"/>
    <path d="M 175.920779 162.938824 
L 175.920779 158.985882 
" clip-path="url(#p04652080d5)" style="fill: none; stroke: #000000; stroke-width: 3"/>
    <path d="M 181.355844 162.938824 
L 181.355844 158.985882 
" clip-path="url(#p04652080d5)" style="fill: none; stroke: #000000; stroke-width: 3"/>
   </g>
   <g id="EventCollection_27">
    <path d="M 40.044156 167.88 
L 40.044156 163.927059 
" clip-path="url(#p04652080d5)" style="fill: none; stroke: #000000; stroke-width: 3"/>
    <path d="M 67.219481 167.88 
L 67.219481 163.927059 
" clip-path="url(#p04652080d5)" style="fill: none; stroke: #000000; stroke-width: 3"/>
    <path d="M 83.524675 167.88 
L 83.524675 163.927059 
" clip-path="url(#p04652080d5)" style="fill: none; stroke: #000000; stroke-width: 3"/>
    <path d="M 88.95974 167.88 
L 88.95974 163.927059 
" clip-path="url(#p04652080d5)" style="fill: none; stroke: #000000; stroke-width: 3"/>
    <path d="M 127.005195 167.88 
L 127.005195 163.927059 
" clip-path="url(#p04652080d5)" style="fill: none; stroke: #000000; stroke-width: 3"/>
    <path d="M 132.44026 167.88 
L 132.44026 163.927059 
" clip-path="url(#p04652080d5)" style="fill: none; stroke: #000000; stroke-width: 3"/>
    <path d="M 143.31039 167.88 
L 143.31039 163.927059 
" clip-path="url(#p04652080d5)" style="fill: none; stroke: #000000; stroke-width: 3"/>
    <path d="M 181.355844 167.88 
L 181.355844 163.927059 
" clip-path="url(#p04652080d5)" style="fill: none; stroke: #000000; stroke-width: 3"/>
   </g>
   <g id="EventCollection_28">
    <path d="M 40.044156 172.821176 
L 40.044156 168.868235 
" clip-path="url(#p04652080d5)" style="fill: none; stroke: #000000; stroke-width: 3"/>
    <path d="M 50.914286 172.821176 
L 50.914286 168.868235 
" clip-path="url(#p04652080d5)" style="fill: none; stroke: #000000; stroke-width: 3"/>
    <path d="M 56.349351 172.821176 
L 56.349351 168.868235 
" clip-path="url(#p04652080d5)" style="fill: none; stroke: #000000; stroke-width: 3"/>
    <path d="M 67.219481 172.821176 
L 67.219481 168.868235 
" clip-path="url(#p04652080d5)" style="fill: none; stroke: #000000; stroke-width: 3"/>
    <path d="M 83.524675 172.821176 
L 83.524675 168.868235 
" clip-path="url(#p04652080d5)" style="fill: none; stroke: #000000; stroke-width: 3"/>
    <path d="M 88.95974 172.821176 
L 88.95974 168.868235 
" clip-path="url(#p04652080d5)" style="fill: none; stroke: #000000; stroke-width: 3"/>
    <path d="M 127.005195 172.821176 
L 127.005195 168.868235 
" clip-path="url(#p04652080d5)" style="fill: none; stroke: #000000; stroke-width: 3"/>
    <path d="M 132.44026 172.821176 
L 132.44026 168.868235 
" clip-path="url(#p04652080d5)" style="fill: none; stroke: #000000; stroke-width: 3"/>
    <path d="M 137.875325 172.821176 
L 137.875325 168.868235 
" clip-path="url(#p04652080d5)" style="fill: none; stroke: #000000; stroke-width: 3"/>
    <path d="M 143.31039 172.821176 
L 143.31039 168.868235 
" clip-path="url(#p04652080d5)" style="fill: none; stroke: #000000; stroke-width: 3"/>
    <path d="M 181.355844 172.821176 
L 181.355844 168.868235 
" clip-path="url(#p04652080d5)" style="fill: none; stroke: #000000; stroke-width: 3"/>
    <path d="M 186.790909 172.821176 
L 186.790909 168.868235 
" clip-path="url(#p04652080d5)" style="fill: none; stroke: #000000; stroke-width: 3"/>
   </g>
   <g id="EventCollection_29">
    <path d="M 40.044156 177.762353 
L 40.044156 173.809412 
" clip-path="url(#p04652080d5)" style="fill: none; stroke: #000000; stroke-width: 3"/>
    <path d="M 45.479221 177.762353 
L 45.479221 173.809412 
" clip-path="url(#p04652080d5)" style="fill: none; stroke: #000000; stroke-width: 3"/>
    <path d="M 50.914286 177.762353 
L 50.914286 173.809412 
" clip-path="url(#p04652080d5)" style="fill: none; stroke: #000000; stroke-width: 3"/>
    <path d="M 56.349351 177.762353 
L 56.349351 173.809412 
" clip-path="url(#p04652080d5)" style="fill: none; stroke: #000000; stroke-width: 3"/>
    <path d="M 61.784416 177.762353 
L 61.784416 173.809412 
" clip-path="url(#p04652080d5)" style="fill: none; stroke: #000000; stroke-width: 3"/>
    <path d="M 67.219481 177.762353 
L 67.219481 173.809412 
" clip-path="url(#p04652080d5)" style="fill: none; stroke: #000000; stroke-width: 3"/>
    <path d="M 83.524675 177.762353 
L 83.524675 173.809412 
" clip-path="url(#p04652080d5)" style="fill: none; stroke: #000000; stroke-width: 3"/>
    <path d="M 132.44026 177.762353 
L 132.44026 173.809412 
" clip-path="url(#p04652080d5)" style="fill: none; stroke: #000000; stroke-width: 3"/>
    <path d="M 137.875325 177.762353 
L 137.875325 173.809412 
" clip-path="url(#p04652080d5)" style="fill: none; stroke: #000000; stroke-width: 3"/>
    <path d="M 186.790909 177.762353 
L 186.790909 173.809412 
" clip-path="url(#p04652080d5)" style="fill: none; stroke: #000000; stroke-width: 3"/>
   </g>
   <g id="EventCollection_30">
    <path d="M 83.524675 182.703529 
L 83.524675 178.750588 
" clip-path="url(#p04652080d5)" style="fill: none; stroke: #000000; stroke-width: 3"/>
    <path d="M 88.95974 182.703529 
L 88.95974 178.750588 
" clip-path="url(#p04652080d5)" style="fill: none; stroke: #000000; stroke-width: 3"/>
    <path d="M 94.394805 182.703529 
L 94.394805 178.750588 
" clip-path="url(#p04652080d5)" style="fill: none; stroke: #000000; stroke-width: 3"/>
    <path d="M 99.82987 182.703529 
L 99.82987 178.750588 
" clip-path="url(#p04652080d5)" style="fill: none; stroke: #000000; stroke-width: 3"/>
    <path d="M 105.264935 182.703529 
L 105.264935 178.750588 
" clip-path="url(#p04652080d5)" style="fill: none; stroke: #000000; stroke-width: 3"/>
    <path d="M 110.7 182.703529 
L 110.7 178.750588 
" clip-path="url(#p04652080d5)" style="fill: none; stroke: #000000; stroke-width: 3"/>
    <path d="M 116.135065 182.703529 
L 116.135065 178.750588 
" clip-path="url(#p04652080d5)" style="fill: none; stroke: #000000; stroke-width: 3"/>
    <path d="M 121.57013 182.703529 
L 121.57013 178.750588 
" clip-path="url(#p04652080d5)" style="fill: none; stroke: #000000; stroke-width: 3"/>
    <path d="M 127.005195 182.703529 
L 127.005195 178.750588 
" clip-path="url(#p04652080d5)" style="fill: none; stroke: #000000; stroke-width: 3"/>
    <path d="M 132.44026 182.703529 
L 132.44026 178.750588 
" clip-path="url(#p04652080d5)" style="fill: none; stroke: #000000; stroke-width: 3"/>
    <path d="M 137.875325 182.703529 
L 137.875325 178.750588 
" clip-path="url(#p04652080d5)" style="fill: none; stroke: #000000; stroke-width: 3"/>
    <path d="M 143.31039 182.703529 
L 143.31039 178.750588 
" clip-path="url(#p04652080d5)" style="fill: none; stroke: #000000; stroke-width: 3"/>
    <path d="M 148.745455 182.703529 
L 148.745455 178.750588 
" clip-path="url(#p04652080d5)" style="fill: none; stroke: #000000; stroke-width: 3"/>
    <path d="M 154.180519 182.703529 
L 154.180519 178.750588 
" clip-path="url(#p04652080d5)" style="fill: none; stroke: #000000; stroke-width: 3"/>
    <path d="M 159.615584 182.703529 
L 159.615584 178.750588 
" clip-path="url(#p04652080d5)" style="fill: none; stroke: #000000; stroke-width: 3"/>
    <path d="M 165.050649 182.703529 
L 165.050649 178.750588 
" clip-path="url(#p04652080d5)" style="fill: none; stroke: #000000; stroke-width: 3"/>
    <path d="M 170.485714 182.703529 
L 170.485714 178.750588 
" clip-path="url(#p04652080d5)" style="fill: none; stroke: #000000; stroke-width: 3"/>
    <path d="M 175.920779 182.703529 
L 175.920779 178.750588 
" clip-path="url(#p04652080d5)" style="fill: none; stroke: #000000; stroke-width: 3"/>
    <path d="M 181.355844 182.703529 
L 181.355844 178.750588 
" clip-path="url(#p04652080d5)" style="fill: none; stroke: #000000; stroke-width: 3"/>
    <path d="M 186.790909 182.703529 
L 186.790909 178.750588 
" clip-path="url(#p04652080d5)" style="fill: none; stroke: #000000; stroke-width: 3"/>
   </g>
  </g>
 </g>
 <defs>
  <clipPath id="p04652080d5">
   <rect x="27" y="25.92" width="167.4" height="166.32"/>
  </clipPath>
 </defs>
</svg>
