<?xml version="1.0" encoding="utf-8" standalone="no"?>
<!DOCTYPE svg PUBLIC "-//W3C//DTD SVG 1.1//EN"
  "http://www.w3.org/Graphics/SVG/1.1/DTD/svg11.dtd">
<svg xmlns:xlink="http://www.w3.org/1999/xlink" width="216pt" height="216pt" viewBox="0 0 216 216" xmlns="http://www.w3.org/2000/svg" version="1.1">
 <metadata>
  <rdf:RDF xmlns:dc="http://purl.org/dc/elements/1.1/" xmlns:cc="http://creativecommons.org/ns#" xmlns:rdf="http://www.w3.org/1999/02/22-rdf-syntax-ns#">
   <cc:Work>
    <dc:type rdf:resource="http://purl.org/dc/dcmitype/StillImage"/>
    <dc:date>2024-02-02T13:24:18.212373</dc:date>
    <dc:format>image/svg+xml</dc:format>
    <dc:creator>
     <cc:Agent>
      <dc:title>Matplotlib v3.8.0, https://matplotlib.org/</dc:title>
     </cc:Agent>
    </dc:creator>
   </cc:Work>
  </rdf:RDF>
 </metadata>
 <defs>
  <style type="text/css">*{stroke-linejoin: round; stroke-linecap: butt}</style>
 </defs>
 <g id="figure_1">
  <g id="patch_1">
   <path d="M 0 216 
L 216 216 
L 216 0 
L 0 0 
z
" style="fill: #ffffff"/>
  </g>
  <g id="axes_1">
   <g id="EventCollection_1">
    <path d="M 96.609091 39.409412 
L 96.609091 35.456471 
" clip-path="url(#p9967c84f5a)" style="fill: none; stroke: #000000; stroke-width: 3"/>
    <path d="M 102.245455 39.409412 
L 102.245455 35.456471 
" clip-path="url(#p9967c84f5a)" style="fill: none; stroke: #000000; stroke-width: 3"/>
    <path d="M 107.881818 39.409412 
L 107.881818 35.456471 
" clip-path="url(#p9967c84f5a)" style="fill: none; stroke: #000000; stroke-width: 3"/>
    <path d="M 113.518182 39.409412 
L 113.518182 35.456471 
" clip-path="url(#p9967c84f5a)" style="fill: none; stroke: #000000; stroke-width: 3"/>
    <path d="M 119.154545 39.409412 
L 119.154545 35.456471 
" clip-path="url(#p9967c84f5a)" style="fill: none; stroke: #000000; stroke-width: 3"/>
    <path d="M 124.790909 39.409412 
L 124.790909 35.456471 
" clip-path="url(#p9967c84f5a)" style="fill: none; stroke: #000000; stroke-width: 3"/>
   </g>
   <g id="EventCollection_2">
    <path d="M 51.518182 44.350588 
L 51.518182 40.397647 
" clip-path="url(#p9967c84f5a)" style="fill: none; stroke: #000000; stroke-width: 3"/>
    <path d="M 57.154545 44.350588 
L 57.154545 40.397647 
" clip-path="url(#p9967c84f5a)" style="fill: none; stroke: #000000; stroke-width: 3"/>
    <path d="M 90.972727 44.350588 
L 90.972727 40.397647 
" clip-path="url(#p9967c84f5a)" style="fill: none; stroke: #000000; stroke-width: 3"/>
    <path d="M 96.609091 44.350588 
L 96.609091 40.397647 
" clip-path="url(#p9967c84f5a)" style="fill: none; stroke: #000000; stroke-width: 3"/>
    <path d="M 102.245455 44.350588 
L 102.245455 40.397647 
" clip-path="url(#p9967c84f5a)" style="fill: none; stroke: #000000; stroke-width: 3"/>
    <path d="M 119.154545 44.350588 
L 119.154545 40.397647 
" clip-path="url(#p9967c84f5a)" style="fill: none; stroke: #000000; stroke-width: 3"/>
    <path d="M 124.790909 44.350588 
L 124.790909 40.397647 
" clip-path="url(#p9967c84f5a)" style="fill: none; stroke: #000000; stroke-width: 3"/>
    <path d="M 130.427273 44.350588 
L 130.427273 40.397647 
" clip-path="url(#p9967c84f5a)" style="fill: none; stroke: #000000; stroke-width: 3"/>
   </g>
   <g id="EventCollection_3">
    <path d="M 45.881818 49.291765 
L 45.881818 45.338824 
" clip-path="url(#p9967c84f5a)" style="fill: none; stroke: #000000; stroke-width: 3"/>
    <path d="M 51.518182 49.291765 
L 51.518182 45.338824 
" clip-path="url(#p9967c84f5a)" style="fill: none; stroke: #000000; stroke-width: 3"/>
    <path d="M 57.154545 49.291765 
L 57.154545 45.338824 
" clip-path="url(#p9967c84f5a)" style="fill: none; stroke: #000000; stroke-width: 3"/>
    <path d="M 62.790909 49.291765 
L 62.790909 45.338824 
" clip-path="url(#p9967c84f5a)" style="fill: none; stroke: #000000; stroke-width: 3"/>
    <path d="M 85.336364 49.291765 
L 85.336364 45.338824 
" clip-path="url(#p9967c84f5a)" style="fill: none; stroke: #000000; stroke-width: 3"/>
    <path d="M 90.972727 49.291765 
L 90.972727 45.338824 
" clip-path="url(#p9967c84f5a)" style="fill: none; stroke: #000000; stroke-width: 3"/>
    <path d="M 130.427273 49.291765 
L 130.427273 45.338824 
" clip-path="url(#p9967c84f5a)" style="fill: none; stroke: #000000; stroke-width: 3"/>
    <path d="M 136.063636 49.291765 
L 136.063636 45.338824 
" clip-path="url(#p9967c84f5a)" style="fill: none; stroke: #000000; stroke-width: 3"/>
    <path d="M 158.609091 49.291765 
L 158.609091 45.338824 
" clip-path="url(#p9967c84f5a)" style="fill: none; stroke: #000000; stroke-width: 3"/>
    <path d="M 164.245455 49.291765 
L 164.245455 45.338824 
" clip-path="url(#p9967c84f5a)" style="fill: none; stroke: #000000; stroke-width: 3"/>
    <path d="M 169.881818 49.291765 
L 169.881818 45.338824 
" clip-path="url(#p9967c84f5a)" style="fill: none; stroke: #000000; stroke-width: 3"/>
    <path d="M 175.518182 49.291765 
L 175.518182 45.338824 
" clip-path="url(#p9967c84f5a)" style="fill: none; stroke: #000000; stroke-width: 3"/>
   </g>
   <g id="EventCollection_4">
    <path d="M 45.881818 54.232941 
L 45.881818 50.28 
" clip-path="url(#p9967c84f5a)" style="fill: none; stroke: #000000; stroke-width: 3"/>
    <path d="M 62.790909 54.232941 
L 62.790909 50.28 
" clip-path="url(#p9967c84f5a)" style="fill: none; stroke: #000000; stroke-width: 3"/>
    <path d="M 85.336364 54.232941 
L 85.336364 50.28 
" clip-path="url(#p9967c84f5a)" style="fill: none; stroke: #000000; stroke-width: 3"/>
    <path d="M 90.972727 54.232941 
L 90.972727 50.28 
" clip-path="url(#p9967c84f5a)" style="fill: none; stroke: #000000; stroke-width: 3"/>
    <path d="M 130.427273 54.232941 
L 130.427273 50.28 
" clip-path="url(#p9967c84f5a)" style="fill: none; stroke: #000000; stroke-width: 3"/>
    <path d="M 136.063636 54.232941 
L 136.063636 50.28 
" clip-path="url(#p9967c84f5a)" style="fill: none; stroke: #000000; stroke-width: 3"/>
    <path d="M 158.609091 54.232941 
L 158.609091 50.28 
" clip-path="url(#p9967c84f5a)" style="fill: none; stroke: #000000; stroke-width: 3"/>
    <path d="M 175.518182 54.232941 
L 175.518182 50.28 
" clip-path="url(#p9967c84f5a)" style="fill: none; stroke: #000000; stroke-width: 3"/>
   </g>
   <g id="EventCollection_5">
    <path d="M 40.245455 59.174118 
L 40.245455 55.221176 
" clip-path="url(#p9967c84f5a)" style="fill: none; stroke: #000000; stroke-width: 3"/>
    <path d="M 45.881818 59.174118 
L 45.881818 55.221176 
" clip-path="url(#p9967c84f5a)" style="fill: none; stroke: #000000; stroke-width: 3"/>
    <path d="M 62.790909 59.174118 
L 62.790909 55.221176 
" clip-path="url(#p9967c84f5a)" style="fill: none; stroke: #000000; stroke-width: 3"/>
    <path d="M 68.427273 59.174118 
L 68.427273 55.221176 
" clip-path="url(#p9967c84f5a)" style="fill: none; stroke: #000000; stroke-width: 3"/>
    <path d="M 85.336364 59.174118 
L 85.336364 55.221176 
" clip-path="url(#p9967c84f5a)" style="fill: none; stroke: #000000; stroke-width: 3"/>
    <path d="M 136.063636 59.174118 
L 136.063636 55.221176 
" clip-path="url(#p9967c84f5a)" style="fill: none; stroke: #000000; stroke-width: 3"/>
    <path d="M 152.972727 59.174118 
L 152.972727 55.221176 
" clip-path="url(#p9967c84f5a)" style="fill: none; stroke: #000000; stroke-width: 3"/>
    <path d="M 158.609091 59.174118 
L 158.609091 55.221176 
" clip-path="url(#p9967c84f5a)" style="fill: none; stroke: #000000; stroke-width: 3"/>
    <path d="M 175.518182 59.174118 
L 175.518182 55.221176 
" clip-path="url(#p9967c84f5a)" style="fill: none; stroke: #000000; stroke-width: 3"/>
    <path d="M 181.154545 59.174118 
L 181.154545 55.221176 
" clip-path="url(#p9967c84f5a)" style="fill: none; stroke: #000000; stroke-width: 3"/>
   </g>
   <g id="EventCollection_6">
    <path d="M 40.245455 64.115294 
L 40.245455 60.162353 
" clip-path="url(#p9967c84f5a)" style="fill: none; stroke: #000000; stroke-width: 3"/>
    <path d="M 68.427273 64.115294 
L 68.427273 60.162353 
" clip-path="url(#p9967c84f5a)" style="fill: none; stroke: #000000; stroke-width: 3"/>
    <path d="M 85.336364 64.115294 
L 85.336364 60.162353 
" clip-path="url(#p9967c84f5a)" style="fill: none; stroke: #000000; stroke-width: 3"/>
    <path d="M 136.063636 64.115294 
L 136.063636 60.162353 
" clip-path="url(#p9967c84f5a)" style="fill: none; stroke: #000000; stroke-width: 3"/>
    <path d="M 152.972727 64.115294 
L 152.972727 60.162353 
" clip-path="url(#p9967c84f5a)" style="fill: none; stroke: #000000; stroke-width: 3"/>
    <path d="M 158.609091 64.115294 
L 158.609091 60.162353 
" clip-path="url(#p9967c84f5a)" style="fill: none; stroke: #000000; stroke-width: 3"/>
    <path d="M 175.518182 64.115294 
L 175.518182 60.162353 
" clip-path="url(#p9967c84f5a)" style="fill: none; stroke: #000000; stroke-width: 3"/>
    <path d="M 181.154545 64.115294 
L 181.154545 60.162353 
" clip-path="url(#p9967c84f5a)" style="fill: none; stroke: #000000; stroke-width: 3"/>
   </g>
   <g id="EventCollection_7">
    <path d="M 34.609091 69.056471 
L 34.609091 65.103529 
" clip-path="url(#p9967c84f5a)" style="fill: none; stroke: #000000; stroke-width: 3"/>
    <path d="M 40.245455 69.056471 
L 40.245455 65.103529 
" clip-path="url(#p9967c84f5a)" style="fill: none; stroke: #000000; stroke-width: 3"/>
    <path d="M 68.427273 69.056471 
L 68.427273 65.103529 
" clip-path="url(#p9967c84f5a)" style="fill: none; stroke: #000000; stroke-width: 3"/>
    <path d="M 74.063636 69.056471 
L 74.063636 65.103529 
" clip-path="url(#p9967c84f5a)" style="fill: none; stroke: #000000; stroke-width: 3"/>
    <path d="M 85.336364 69.056471 
L 85.336364 65.103529 
" clip-path="url(#p9967c84f5a)" style="fill: none; stroke: #000000; stroke-width: 3"/>
    <path d="M 90.972727 69.056471 
L 90.972727 65.103529 
" clip-path="url(#p9967c84f5a)" style="fill: none; stroke: #000000; stroke-width: 3"/>
    <path d="M 130.427273 69.056471 
L 130.427273 65.103529 
" clip-path="url(#p9967c84f5a)" style="fill: none; stroke: #000000; stroke-width: 3"/>
    <path d="M 136.063636 69.056471 
L 136.063636 65.103529 
" clip-path="url(#p9967c84f5a)" style="fill: none; stroke: #000000; stroke-width: 3"/>
    <path d="M 147.336364 69.056471 
L 147.336364 65.103529 
" clip-path="url(#p9967c84f5a)" style="fill: none; stroke: #000000; stroke-width: 3"/>
    <path d="M 152.972727 69.056471 
L 152.972727 65.103529 
" clip-path="url(#p9967c84f5a)" style="fill: none; stroke: #000000; stroke-width: 3"/>
    <path d="M 181.154545 69.056471 
L 181.154545 65.103529 
" clip-path="url(#p9967c84f5a)" style="fill: none; stroke: #000000; stroke-width: 3"/>
    <path d="M 186.790909 69.056471 
L 186.790909 65.103529 
" clip-path="url(#p9967c84f5a)" style="fill: none; stroke: #000000; stroke-width: 3"/>
   </g>
   <g id="EventCollection_8">
    <path d="M 34.609091 73.997647 
L 34.609091 70.044706 
" clip-path="url(#p9967c84f5a)" style="fill: none; stroke: #000000; stroke-width: 3"/>
    <path d="M 74.063636 73.997647 
L 74.063636 70.044706 
" clip-path="url(#p9967c84f5a)" style="fill: none; stroke: #000000; stroke-width: 3"/>
    <path d="M 85.336364 73.997647 
L 85.336364 70.044706 
" clip-path="url(#p9967c84f5a)" style="fill: none; stroke: #000000; stroke-width: 3"/>
    <path d="M 90.972727 73.997647 
L 90.972727 70.044706 
" clip-path="url(#p9967c84f5a)" style="fill: none; stroke: #000000; stroke-width: 3"/>
    <path d="M 130.427273 73.997647 
L 130.427273 70.044706 
" clip-path="url(#p9967c84f5a)" style="fill: none; stroke: #000000; stroke-width: 3"/>
    <path d="M 136.063636 73.997647 
L 136.063636 70.044706 
" clip-path="url(#p9967c84f5a)" style="fill: none; stroke: #000000; stroke-width: 3"/>
    <path d="M 147.336364 73.997647 
L 147.336364 70.044706 
" clip-path="url(#p9967c84f5a)" style="fill: none; stroke: #000000; stroke-width: 3"/>
    <path d="M 152.972727 73.997647 
L 152.972727 70.044706 
" clip-path="url(#p9967c84f5a)" style="fill: none; stroke: #000000; stroke-width: 3"/>
    <path d="M 164.245455 73.997647 
L 164.245455 70.044706 
" clip-path="url(#p9967c84f5a)" style="fill: none; stroke: #000000; stroke-width: 3"/>
    <path d="M 169.881818 73.997647 
L 169.881818 70.044706 
" clip-path="url(#p9967c84f5a)" style="fill: none; stroke: #000000; stroke-width: 3"/>
    <path d="M 181.154545 73.997647 
L 181.154545 70.044706 
" clip-path="url(#p9967c84f5a)" style="fill: none; stroke: #000000; stroke-width: 3"/>
    <path d="M 186.790909 73.997647 
L 186.790909 70.044706 
" clip-path="url(#p9967c84f5a)" style="fill: none; stroke: #000000; stroke-width: 3"/>
   </g>
   <g id="EventCollection_9">
    <path d="M 34.609091 78.938824 
L 34.609091 74.985882 
" clip-path="url(#p9967c84f5a)" style="fill: none; stroke: #000000; stroke-width: 3"/>
    <path d="M 40.245455 78.938824 
L 40.245455 74.985882 
" clip-path="url(#p9967c84f5a)" style="fill: none; stroke: #000000; stroke-width: 3"/>
    <path d="M 45.881818 78.938824 
L 45.881818 74.985882 
" clip-path="url(#p9967c84f5a)" style="fill: none; stroke: #000000; stroke-width: 3"/>
    <path d="M 51.518182 78.938824 
L 51.518182 74.985882 
" clip-path="url(#p9967c84f5a)" style="fill: none; stroke: #000000; stroke-width: 3"/>
    <path d="M 57.154545 78.938824 
L 57.154545 74.985882 
" clip-path="url(#p9967c84f5a)" style="fill: none; stroke: #000000; stroke-width: 3"/>
    <path d="M 62.790909 78.938824 
L 62.790909 74.985882 
" clip-path="url(#p9967c84f5a)" style="fill: none; stroke: #000000; stroke-width: 3"/>
    <path d="M 68.427273 78.938824 
L 68.427273 74.985882 
" clip-path="url(#p9967c84f5a)" style="fill: none; stroke: #000000; stroke-width: 3"/>
    <path d="M 74.063636 78.938824 
L 74.063636 74.985882 
" clip-path="url(#p9967c84f5a)" style="fill: none; stroke: #000000; stroke-width: 3"/>
    <path d="M 90.972727 78.938824 
L 90.972727 74.985882 
" clip-path="url(#p9967c84f5a)" style="fill: none; stroke: #000000; stroke-width: 3"/>
    <path d="M 96.609091 78.938824 
L 96.609091 74.985882 
" clip-path="url(#p9967c84f5a)" style="fill: none; stroke: #000000; stroke-width: 3"/>
    <path d="M 102.245455 78.938824 
L 102.245455 74.985882 
" clip-path="url(#p9967c84f5a)" style="fill: none; stroke: #000000; stroke-width: 3"/>
    <path d="M 119.154545 78.938824 
L 119.154545 74.985882 
" clip-path="url(#p9967c84f5a)" style="fill: none; stroke: #000000; stroke-width: 3"/>
    <path d="M 124.790909 78.938824 
L 124.790909 74.985882 
" clip-path="url(#p9967c84f5a)" style="fill: none; stroke: #000000; stroke-width: 3"/>
    <path d="M 130.427273 78.938824 
L 130.427273 74.985882 
" clip-path="url(#p9967c84f5a)" style="fill: none; stroke: #000000; stroke-width: 3"/>
    <path d="M 152.972727 78.938824 
L 152.972727 74.985882 
" clip-path="url(#p9967c84f5a)" style="fill: none; stroke: #000000; stroke-width: 3"/>
    <path d="M 158.609091 78.938824 
L 158.609091 74.985882 
" clip-path="url(#p9967c84f5a)" style="fill: none; stroke: #000000; stroke-width: 3"/>
    <path d="M 164.245455 78.938824 
L 164.245455 74.985882 
" clip-path="url(#p9967c84f5a)" style="fill: none; stroke: #000000; stroke-width: 3"/>
    <path d="M 169.881818 78.938824 
L 169.881818 74.985882 
" clip-path="url(#p9967c84f5a)" style="fill: none; stroke: #000000; stroke-width: 3"/>
    <path d="M 175.518182 78.938824 
L 175.518182 74.985882 
" clip-path="url(#p9967c84f5a)" style="fill: none; stroke: #000000; stroke-width: 3"/>
    <path d="M 181.154545 78.938824 
L 181.154545 74.985882 
" clip-path="url(#p9967c84f5a)" style="fill: none; stroke: #000000; stroke-width: 3"/>
   </g>
   <g id="EventCollection_10">
    <path d="M 96.609091 83.88 
L 96.609091 79.927059 
" clip-path="url(#p9967c84f5a)" style="fill: none; stroke: #000000; stroke-width: 3"/>
    <path d="M 102.245455 83.88 
L 102.245455 79.927059 
" clip-path="url(#p9967c84f5a)" style="fill: none; stroke: #000000; stroke-width: 3"/>
    <path d="M 107.881818 83.88 
L 107.881818 79.927059 
" clip-path="url(#p9967c84f5a)" style="fill: none; stroke: #000000; stroke-width: 3"/>
    <path d="M 113.518182 83.88 
L 113.518182 79.927059 
" clip-path="url(#p9967c84f5a)" style="fill: none; stroke: #000000; stroke-width: 3"/>
    <path d="M 119.154545 83.88 
L 119.154545 79.927059 
" clip-path="url(#p9967c84f5a)" style="fill: none; stroke: #000000; stroke-width: 3"/>
    <path d="M 124.790909 83.88 
L 124.790909 79.927059 
" clip-path="url(#p9967c84f5a)" style="fill: none; stroke: #000000; stroke-width: 3"/>
   </g>
   <g id="EventCollection_11"/>
   <g id="EventCollection_12">
    <path d="M 40.245455 93.762353 
L 40.245455 89.809412 
" clip-path="url(#p9967c84f5a)" style="fill: none; stroke: #000000; stroke-width: 3"/>
    <path d="M 45.881818 93.762353 
L 45.881818 89.809412 
" clip-path="url(#p9967c84f5a)" style="fill: none; stroke: #000000; stroke-width: 3"/>
    <path d="M 51.518182 93.762353 
L 51.518182 89.809412 
" clip-path="url(#p9967c84f5a)" style="fill: none; stroke: #000000; stroke-width: 3"/>
    <path d="M 57.154545 93.762353 
L 57.154545 89.809412 
" clip-path="url(#p9967c84f5a)" style="fill: none; stroke: #000000; stroke-width: 3"/>
    <path d="M 62.790909 93.762353 
L 62.790909 89.809412 
" clip-path="url(#p9967c84f5a)" style="fill: none; stroke: #000000; stroke-width: 3"/>
    <path d="M 68.427273 93.762353 
L 68.427273 89.809412 
" clip-path="url(#p9967c84f5a)" style="fill: none; stroke: #000000; stroke-width: 3"/>
    <path d="M 90.972727 93.762353 
L 90.972727 89.809412 
" clip-path="url(#p9967c84f5a)" style="fill: none; stroke: #000000; stroke-width: 3"/>
    <path d="M 96.609091 93.762353 
L 96.609091 89.809412 
" clip-path="url(#p9967c84f5a)" style="fill: none; stroke: #000000; stroke-width: 3"/>
    <path d="M 102.245455 93.762353 
L 102.245455 89.809412 
" clip-path="url(#p9967c84f5a)" style="fill: none; stroke: #000000; stroke-width: 3"/>
    <path d="M 107.881818 93.762353 
L 107.881818 89.809412 
" clip-path="url(#p9967c84f5a)" style="fill: none; stroke: #000000; stroke-width: 3"/>
    <path d="M 113.518182 93.762353 
L 113.518182 89.809412 
" clip-path="url(#p9967c84f5a)" style="fill: none; stroke: #000000; stroke-width: 3"/>
    <path d="M 119.154545 93.762353 
L 119.154545 89.809412 
" clip-path="url(#p9967c84f5a)" style="fill: none; stroke: #000000; stroke-width: 3"/>
    <path d="M 124.790909 93.762353 
L 124.790909 89.809412 
" clip-path="url(#p9967c84f5a)" style="fill: none; stroke: #000000; stroke-width: 3"/>
    <path d="M 130.427273 93.762353 
L 130.427273 89.809412 
" clip-path="url(#p9967c84f5a)" style="fill: none; stroke: #000000; stroke-width: 3"/>
    <path d="M 152.972727 93.762353 
L 152.972727 89.809412 
" clip-path="url(#p9967c84f5a)" style="fill: none; stroke: #000000; stroke-width: 3"/>
    <path d="M 158.609091 93.762353 
L 158.609091 89.809412 
" clip-path="url(#p9967c84f5a)" style="fill: none; stroke: #000000; stroke-width: 3"/>
    <path d="M 164.245455 93.762353 
L 164.245455 89.809412 
" clip-path="url(#p9967c84f5a)" style="fill: none; stroke: #000000; stroke-width: 3"/>
    <path d="M 169.881818 93.762353 
L 169.881818 89.809412 
" clip-path="url(#p9967c84f5a)" style="fill: none; stroke: #000000; stroke-width: 3"/>
    <path d="M 175.518182 93.762353 
L 175.518182 89.809412 
" clip-path="url(#p9967c84f5a)" style="fill: none; stroke: #000000; stroke-width: 3"/>
    <path d="M 181.154545 93.762353 
L 181.154545 89.809412 
" clip-path="url(#p9967c84f5a)" style="fill: none; stroke: #000000; stroke-width: 3"/>
   </g>
   <g id="EventCollection_13">
    <path d="M 34.609091 98.703529 
L 34.609091 94.750588 
" clip-path="url(#p9967c84f5a)" style="fill: none; stroke: #000000; stroke-width: 3"/>
    <path d="M 40.245455 98.703529 
L 40.245455 94.750588 
" clip-path="url(#p9967c84f5a)" style="fill: none; stroke: #000000; stroke-width: 3"/>
    <path d="M 45.881818 98.703529 
L 45.881818 94.750588 
" clip-path="url(#p9967c84f5a)" style="fill: none; stroke: #000000; stroke-width: 3"/>
    <path d="M 62.790909 98.703529 
L 62.790909 94.750588 
" clip-path="url(#p9967c84f5a)" style="fill: none; stroke: #000000; stroke-width: 3"/>
    <path d="M 68.427273 98.703529 
L 68.427273 94.750588 
" clip-path="url(#p9967c84f5a)" style="fill: none; stroke: #000000; stroke-width: 3"/>
    <path d="M 74.063636 98.703529 
L 74.063636 94.750588 
" clip-path="url(#p9967c84f5a)" style="fill: none; stroke: #000000; stroke-width: 3"/>
    <path d="M 90.972727 98.703529 
L 90.972727 94.750588 
" clip-path="url(#p9967c84f5a)" style="fill: none; stroke: #000000; stroke-width: 3"/>
    <path d="M 130.427273 98.703529 
L 130.427273 94.750588 
" clip-path="url(#p9967c84f5a)" style="fill: none; stroke: #000000; stroke-width: 3"/>
    <path d="M 147.336364 98.703529 
L 147.336364 94.750588 
" clip-path="url(#p9967c84f5a)" style="fill: none; stroke: #000000; stroke-width: 3"/>
    <path d="M 152.972727 98.703529 
L 152.972727 94.750588 
" clip-path="url(#p9967c84f5a)" style="fill: none; stroke: #000000; stroke-width: 3"/>
    <path d="M 158.609091 98.703529 
L 158.609091 94.750588 
" clip-path="url(#p9967c84f5a)" style="fill: none; stroke: #000000; stroke-width: 3"/>
    <path d="M 175.518182 98.703529 
L 175.518182 94.750588 
" clip-path="url(#p9967c84f5a)" style="fill: none; stroke: #000000; stroke-width: 3"/>
    <path d="M 181.154545 98.703529 
L 181.154545 94.750588 
" clip-path="url(#p9967c84f5a)" style="fill: none; stroke: #000000; stroke-width: 3"/>
    <path d="M 186.790909 98.703529 
L 186.790909 94.750588 
" clip-path="url(#p9967c84f5a)" style="fill: none; stroke: #000000; stroke-width: 3"/>
   </g>
   <g id="EventCollection_14">
    <path d="M 34.609091 103.644706 
L 34.609091 99.691765 
" clip-path="url(#p9967c84f5a)" style="fill: none; stroke: #000000; stroke-width: 3"/>
    <path d="M 40.245455 103.644706 
L 40.245455 99.691765 
" clip-path="url(#p9967c84f5a)" style="fill: none; stroke: #000000; stroke-width: 3"/>
    <path d="M 68.427273 103.644706 
L 68.427273 99.691765 
" clip-path="url(#p9967c84f5a)" style="fill: none; stroke: #000000; stroke-width: 3"/>
    <path d="M 74.063636 103.644706 
L 74.063636 99.691765 
" clip-path="url(#p9967c84f5a)" style="fill: none; stroke: #000000; stroke-width: 3"/>
    <path d="M 90.972727 103.644706 
L 90.972727 99.691765 
" clip-path="url(#p9967c84f5a)" style="fill: none; stroke: #000000; stroke-width: 3"/>
    <path d="M 130.427273 103.644706 
L 130.427273 99.691765 
" clip-path="url(#p9967c84f5a)" style="fill: none; stroke: #000000; stroke-width: 3"/>
    <path d="M 147.336364 103.644706 
L 147.336364 99.691765 
" clip-path="url(#p9967c84f5a)" style="fill: none; stroke: #000000; stroke-width: 3"/>
    <path d="M 152.972727 103.644706 
L 152.972727 99.691765 
" clip-path="url(#p9967c84f5a)" style="fill: none; stroke: #000000; stroke-width: 3"/>
    <path d="M 181.154545 103.644706 
L 181.154545 99.691765 
" clip-path="url(#p9967c84f5a)" style="fill: none; stroke: #000000; stroke-width: 3"/>
    <path d="M 186.790909 103.644706 
L 186.790909 99.691765 
" clip-path="url(#p9967c84f5a)" style="fill: none; stroke: #000000; stroke-width: 3"/>
   </g>
   <g id="EventCollection_15">
    <path d="M 34.609091 108.585882 
L 34.609091 104.632941 
" clip-path="url(#p9967c84f5a)" style="fill: none; stroke: #000000; stroke-width: 3"/>
    <path d="M 74.063636 108.585882 
L 74.063636 104.632941 
" clip-path="url(#p9967c84f5a)" style="fill: none; stroke: #000000; stroke-width: 3"/>
    <path d="M 90.972727 108.585882 
L 90.972727 104.632941 
" clip-path="url(#p9967c84f5a)" style="fill: none; stroke: #000000; stroke-width: 3"/>
    <path d="M 130.427273 108.585882 
L 130.427273 104.632941 
" clip-path="url(#p9967c84f5a)" style="fill: none; stroke: #000000; stroke-width: 3"/>
    <path d="M 147.336364 108.585882 
L 147.336364 104.632941 
" clip-path="url(#p9967c84f5a)" style="fill: none; stroke: #000000; stroke-width: 3"/>
    <path d="M 186.790909 108.585882 
L 186.790909 104.632941 
" clip-path="url(#p9967c84f5a)" style="fill: none; stroke: #000000; stroke-width: 3"/>
   </g>
   <g id="EventCollection_16">
    <path d="M 34.609091 113.527059 
L 34.609091 109.574118 
" clip-path="url(#p9967c84f5a)" style="fill: none; stroke: #000000; stroke-width: 3"/>
    <path d="M 74.063636 113.527059 
L 74.063636 109.574118 
" clip-path="url(#p9967c84f5a)" style="fill: none; stroke: #000000; stroke-width: 3"/>
    <path d="M 90.972727 113.527059 
L 90.972727 109.574118 
" clip-path="url(#p9967c84f5a)" style="fill: none; stroke: #000000; stroke-width: 3"/>
    <path d="M 130.427273 113.527059 
L 130.427273 109.574118 
" clip-path="url(#p9967c84f5a)" style="fill: none; stroke: #000000; stroke-width: 3"/>
    <path d="M 147.336364 113.527059 
L 147.336364 109.574118 
" clip-path="url(#p9967c84f5a)" style="fill: none; stroke: #000000; stroke-width: 3"/>
    <path d="M 186.790909 113.527059 
L 186.790909 109.574118 
" clip-path="url(#p9967c84f5a)" style="fill: none; stroke: #000000; stroke-width: 3"/>
   </g>
   <g id="EventCollection_17">
    <path d="M 34.609091 118.468235 
L 34.609091 114.515294 
" clip-path="url(#p9967c84f5a)" style="fill: none; stroke: #000000; stroke-width: 3"/>
    <path d="M 40.245455 118.468235 
L 40.245455 114.515294 
" clip-path="url(#p9967c84f5a)" style="fill: none; stroke: #000000; stroke-width: 3"/>
    <path d="M 68.427273 118.468235 
L 68.427273 114.515294 
" clip-path="url(#p9967c84f5a)" style="fill: none; stroke: #000000; stroke-width: 3"/>
    <path d="M 74.063636 118.468235 
L 74.063636 114.515294 
" clip-path="url(#p9967c84f5a)" style="fill: none; stroke: #000000; stroke-width: 3"/>
    <path d="M 90.972727 118.468235 
L 90.972727 114.515294 
" clip-path="url(#p9967c84f5a)" style="fill: none; stroke: #000000; stroke-width: 3"/>
    <path d="M 130.427273 118.468235 
L 130.427273 114.515294 
" clip-path="url(#p9967c84f5a)" style="fill: none; stroke: #000000; stroke-width: 3"/>
    <path d="M 147.336364 118.468235 
L 147.336364 114.515294 
" clip-path="url(#p9967c84f5a)" style="fill: none; stroke: #000000; stroke-width: 3"/>
    <path d="M 152.972727 118.468235 
L 152.972727 114.515294 
" clip-path="url(#p9967c84f5a)" style="fill: none; stroke: #000000; stroke-width: 3"/>
    <path d="M 181.154545 118.468235 
L 181.154545 114.515294 
" clip-path="url(#p9967c84f5a)" style="fill: none; stroke: #000000; stroke-width: 3"/>
    <path d="M 186.790909 118.468235 
L 186.790909 114.515294 
" clip-path="url(#p9967c84f5a)" style="fill: none; stroke: #000000; stroke-width: 3"/>
   </g>
   <g id="EventCollection_18">
    <path d="M 34.609091 123.409412 
L 34.609091 119.456471 
" clip-path="url(#p9967c84f5a)" style="fill: none; stroke: #000000; stroke-width: 3"/>
    <path d="M 40.245455 123.409412 
L 40.245455 119.456471 
" clip-path="url(#p9967c84f5a)" style="fill: none; stroke: #000000; stroke-width: 3"/>
    <path d="M 45.881818 123.409412 
L 45.881818 119.456471 
" clip-path="url(#p9967c84f5a)" style="fill: none; stroke: #000000; stroke-width: 3"/>
    <path d="M 62.790909 123.409412 
L 62.790909 119.456471 
" clip-path="url(#p9967c84f5a)" style="fill: none; stroke: #000000; stroke-width: 3"/>
    <path d="M 68.427273 123.409412 
L 68.427273 119.456471 
" clip-path="url(#p9967c84f5a)" style="fill: none; stroke: #000000; stroke-width: 3"/>
    <path d="M 74.063636 123.409412 
L 74.063636 119.456471 
" clip-path="url(#p9967c84f5a)" style="fill: none; stroke: #000000; stroke-width: 3"/>
    <path d="M 90.972727 123.409412 
L 90.972727 119.456471 
" clip-path="url(#p9967c84f5a)" style="fill: none; stroke: #000000; stroke-width: 3"/>
    <path d="M 130.427273 123.409412 
L 130.427273 119.456471 
" clip-path="url(#p9967c84f5a)" style="fill: none; stroke: #000000; stroke-width: 3"/>
    <path d="M 147.336364 123.409412 
L 147.336364 119.456471 
" clip-path="url(#p9967c84f5a)" style="fill: none; stroke: #000000; stroke-width: 3"/>
    <path d="M 152.972727 123.409412 
L 152.972727 119.456471 
" clip-path="url(#p9967c84f5a)" style="fill: none; stroke: #000000; stroke-width: 3"/>
    <path d="M 158.609091 123.409412 
L 158.609091 119.456471 
" clip-path="url(#p9967c84f5a)" style="fill: none; stroke: #000000; stroke-width: 3"/>
    <path d="M 175.518182 123.409412 
L 175.518182 119.456471 
" clip-path="url(#p9967c84f5a)" style="fill: none; stroke: #000000; stroke-width: 3"/>
    <path d="M 181.154545 123.409412 
L 181.154545 119.456471 
" clip-path="url(#p9967c84f5a)" style="fill: none; stroke: #000000; stroke-width: 3"/>
    <path d="M 186.790909 123.409412 
L 186.790909 119.456471 
" clip-path="url(#p9967c84f5a)" style="fill: none; stroke: #000000; stroke-width: 3"/>
   </g>
   <g id="EventCollection_19">
    <path d="M 40.245455 128.350588 
L 40.245455 124.397647 
" clip-path="url(#p9967c84f5a)" style="fill: none; stroke: #000000; stroke-width: 3"/>
    <path d="M 45.881818 128.350588 
L 45.881818 124.397647 
" clip-path="url(#p9967c84f5a)" style="fill: none; stroke: #000000; stroke-width: 3"/>
    <path d="M 51.518182 128.350588 
L 51.518182 124.397647 
" clip-path="url(#p9967c84f5a)" style="fill: none; stroke: #000000; stroke-width: 3"/>
    <path d="M 57.154545 128.350588 
L 57.154545 124.397647 
" clip-path="url(#p9967c84f5a)" style="fill: none; stroke: #000000; stroke-width: 3"/>
    <path d="M 62.790909 128.350588 
L 62.790909 124.397647 
" clip-path="url(#p9967c84f5a)" style="fill: none; stroke: #000000; stroke-width: 3"/>
    <path d="M 68.427273 128.350588 
L 68.427273 124.397647 
" clip-path="url(#p9967c84f5a)" style="fill: none; stroke: #000000; stroke-width: 3"/>
    <path d="M 90.972727 128.350588 
L 90.972727 124.397647 
" clip-path="url(#p9967c84f5a)" style="fill: none; stroke: #000000; stroke-width: 3"/>
    <path d="M 96.609091 128.350588 
L 96.609091 124.397647 
" clip-path="url(#p9967c84f5a)" style="fill: none; stroke: #000000; stroke-width: 3"/>
    <path d="M 102.245455 128.350588 
L 102.245455 124.397647 
" clip-path="url(#p9967c84f5a)" style="fill: none; stroke: #000000; stroke-width: 3"/>
    <path d="M 107.881818 128.350588 
L 107.881818 124.397647 
" clip-path="url(#p9967c84f5a)" style="fill: none; stroke: #000000; stroke-width: 3"/>
    <path d="M 113.518182 128.350588 
L 113.518182 124.397647 
" clip-path="url(#p9967c84f5a)" style="fill: none; stroke: #000000; stroke-width: 3"/>
    <path d="M 119.154545 128.350588 
L 119.154545 124.397647 
" clip-path="url(#p9967c84f5a)" style="fill: none; stroke: #000000; stroke-width: 3"/>
    <path d="M 124.790909 128.350588 
L 124.790909 124.397647 
" clip-path="url(#p9967c84f5a)" style="fill: none; stroke: #000000; stroke-width: 3"/>
    <path d="M 130.427273 128.350588 
L 130.427273 124.397647 
" clip-path="url(#p9967c84f5a)" style="fill: none; stroke: #000000; stroke-width: 3"/>
    <path d="M 152.972727 128.350588 
L 152.972727 124.397647 
" clip-path="url(#p9967c84f5a)" style="fill: none; stroke: #000000; stroke-width: 3"/>
    <path d="M 158.609091 128.350588 
L 158.609091 124.397647 
" clip-path="url(#p9967c84f5a)" style="fill: none; stroke: #000000; stroke-width: 3"/>
    <path d="M 164.245455 128.350588 
L 164.245455 124.397647 
" clip-path="url(#p9967c84f5a)" style="fill: none; stroke: #000000; stroke-width: 3"/>
    <path d="M 169.881818 128.350588 
L 169.881818 124.397647 
" clip-path="url(#p9967c84f5a)" style="fill: none; stroke: #000000; stroke-width: 3"/>
    <path d="M 175.518182 128.350588 
L 175.518182 124.397647 
" clip-path="url(#p9967c84f5a)" style="fill: none; stroke: #000000; stroke-width: 3"/>
    <path d="M 181.154545 128.350588 
L 181.154545 124.397647 
" clip-path="url(#p9967c84f5a)" style="fill: none; stroke: #000000; stroke-width: 3"/>
   </g>
   <g id="EventCollection_20"/>
   <g id="EventCollection_21"/>
   <g id="EventCollection_22">
    <path d="M 107.881818 143.174118 
L 107.881818 139.221176 
" clip-path="url(#p9967c84f5a)" style="fill: none; stroke: #000000; stroke-width: 3"/>
    <path d="M 113.518182 143.174118 
L 113.518182 139.221176 
" clip-path="url(#p9967c84f5a)" style="fill: none; stroke: #000000; stroke-width: 3"/>
   </g>
   <g id="EventCollection_23">
    <path d="M 102.245455 148.115294 
L 102.245455 144.162353 
" clip-path="url(#p9967c84f5a)" style="fill: none; stroke: #000000; stroke-width: 3"/>
    <path d="M 107.881818 148.115294 
L 107.881818 144.162353 
" clip-path="url(#p9967c84f5a)" style="fill: none; stroke: #000000; stroke-width: 3"/>
    <path d="M 113.518182 148.115294 
L 113.518182 144.162353 
" clip-path="url(#p9967c84f5a)" style="fill: none; stroke: #000000; stroke-width: 3"/>
    <path d="M 119.154545 148.115294 
L 119.154545 144.162353 
" clip-path="url(#p9967c84f5a)" style="fill: none; stroke: #000000; stroke-width: 3"/>
    <path d="M 158.609091 148.115294 
L 158.609091 144.162353 
" clip-path="url(#p9967c84f5a)" style="fill: none; stroke: #000000; stroke-width: 3"/>
    <path d="M 164.245455 148.115294 
L 164.245455 144.162353 
" clip-path="url(#p9967c84f5a)" style="fill: none; stroke: #000000; stroke-width: 3"/>
    <path d="M 169.881818 148.115294 
L 169.881818 144.162353 
" clip-path="url(#p9967c84f5a)" style="fill: none; stroke: #000000; stroke-width: 3"/>
    <path d="M 175.518182 148.115294 
L 175.518182 144.162353 
" clip-path="url(#p9967c84f5a)" style="fill: none; stroke: #000000; stroke-width: 3"/>
   </g>
   <g id="EventCollection_24">
    <path d="M 102.245455 153.056471 
L 102.245455 149.103529 
" clip-path="url(#p9967c84f5a)" style="fill: none; stroke: #000000; stroke-width: 3"/>
    <path d="M 119.154545 153.056471 
L 119.154545 149.103529 
" clip-path="url(#p9967c84f5a)" style="fill: none; stroke: #000000; stroke-width: 3"/>
    <path d="M 158.609091 153.056471 
L 158.609091 149.103529 
" clip-path="url(#p9967c84f5a)" style="fill: none; stroke: #000000; stroke-width: 3"/>
    <path d="M 175.518182 153.056471 
L 175.518182 149.103529 
" clip-path="url(#p9967c84f5a)" style="fill: none; stroke: #000000; stroke-width: 3"/>
   </g>
   <g id="EventCollection_25">
    <path d="M 96.609091 157.997647 
L 96.609091 154.044706 
" clip-path="url(#p9967c84f5a)" style="fill: none; stroke: #000000; stroke-width: 3"/>
    <path d="M 102.245455 157.997647 
L 102.245455 154.044706 
" clip-path="url(#p9967c84f5a)" style="fill: none; stroke: #000000; stroke-width: 3"/>
    <path d="M 119.154545 157.997647 
L 119.154545 154.044706 
" clip-path="url(#p9967c84f5a)" style="fill: none; stroke: #000000; stroke-width: 3"/>
    <path d="M 124.790909 157.997647 
L 124.790909 154.044706 
" clip-path="url(#p9967c84f5a)" style="fill: none; stroke: #000000; stroke-width: 3"/>
    <path d="M 152.972727 157.997647 
L 152.972727 154.044706 
" clip-path="url(#p9967c84f5a)" style="fill: none; stroke: #000000; stroke-width: 3"/>
    <path d="M 158.609091 157.997647 
L 158.609091 154.044706 
" clip-path="url(#p9967c84f5a)" style="fill: none; stroke: #000000; stroke-width: 3"/>
    <path d="M 175.518182 157.997647 
L 175.518182 154.044706 
" clip-path="url(#p9967c84f5a)" style="fill: none; stroke: #000000; stroke-width: 3"/>
    <path d="M 181.154545 157.997647 
L 181.154545 154.044706 
" clip-path="url(#p9967c84f5a)" style="fill: none; stroke: #000000; stroke-width: 3"/>
   </g>
   <g id="EventCollection_26">
    <path d="M 96.609091 162.938824 
L 96.609091 158.985882 
" clip-path="url(#p9967c84f5a)" style="fill: none; stroke: #000000; stroke-width: 3"/>
    <path d="M 124.790909 162.938824 
L 124.790909 158.985882 
" clip-path="url(#p9967c84f5a)" style="fill: none; stroke: #000000; stroke-width: 3"/>
    <path d="M 152.972727 162.938824 
L 152.972727 158.985882 
" clip-path="url(#p9967c84f5a)" style="fill: none; stroke: #000000; stroke-width: 3"/>
    <path d="M 181.154545 162.938824 
L 181.154545 158.985882 
" clip-path="url(#p9967c84f5a)" style="fill: none; stroke: #000000; stroke-width: 3"/>
   </g>
   <g id="EventCollection_27">
    <path d="M 90.972727 167.88 
L 90.972727 163.927059 
" clip-path="url(#p9967c84f5a)" style="fill: none; stroke: #000000; stroke-width: 3"/>
    <path d="M 96.609091 167.88 
L 96.609091 163.927059 
" clip-path="url(#p9967c84f5a)" style="fill: none; stroke: #000000; stroke-width: 3"/>
    <path d="M 124.790909 167.88 
L 124.790909 163.927059 
" clip-path="url(#p9967c84f5a)" style="fill: none; stroke: #000000; stroke-width: 3"/>
    <path d="M 130.427273 167.88 
L 130.427273 163.927059 
" clip-path="url(#p9967c84f5a)" style="fill: none; stroke: #000000; stroke-width: 3"/>
    <path d="M 147.336364 167.88 
L 147.336364 163.927059 
" clip-path="url(#p9967c84f5a)" style="fill: none; stroke: #000000; stroke-width: 3"/>
    <path d="M 152.972727 167.88 
L 152.972727 163.927059 
" clip-path="url(#p9967c84f5a)" style="fill: none; stroke: #000000; stroke-width: 3"/>
    <path d="M 181.154545 167.88 
L 181.154545 163.927059 
" clip-path="url(#p9967c84f5a)" style="fill: none; stroke: #000000; stroke-width: 3"/>
    <path d="M 186.790909 167.88 
L 186.790909 163.927059 
" clip-path="url(#p9967c84f5a)" style="fill: none; stroke: #000000; stroke-width: 3"/>
   </g>
   <g id="EventCollection_28">
    <path d="M 90.972727 172.821176 
L 90.972727 168.868235 
" clip-path="url(#p9967c84f5a)" style="fill: none; stroke: #000000; stroke-width: 3"/>
    <path d="M 130.427273 172.821176 
L 130.427273 168.868235 
" clip-path="url(#p9967c84f5a)" style="fill: none; stroke: #000000; stroke-width: 3"/>
    <path d="M 147.336364 172.821176 
L 147.336364 168.868235 
" clip-path="url(#p9967c84f5a)" style="fill: none; stroke: #000000; stroke-width: 3"/>
    <path d="M 186.790909 172.821176 
L 186.790909 168.868235 
" clip-path="url(#p9967c84f5a)" style="fill: none; stroke: #000000; stroke-width: 3"/>
   </g>
   <g id="EventCollection_29">
    <path d="M 90.972727 177.762353 
L 90.972727 173.809412 
" clip-path="url(#p9967c84f5a)" style="fill: none; stroke: #000000; stroke-width: 3"/>
    <path d="M 96.609091 177.762353 
L 96.609091 173.809412 
" clip-path="url(#p9967c84f5a)" style="fill: none; stroke: #000000; stroke-width: 3"/>
    <path d="M 102.245455 177.762353 
L 102.245455 173.809412 
" clip-path="url(#p9967c84f5a)" style="fill: none; stroke: #000000; stroke-width: 3"/>
    <path d="M 107.881818 177.762353 
L 107.881818 173.809412 
" clip-path="url(#p9967c84f5a)" style="fill: none; stroke: #000000; stroke-width: 3"/>
    <path d="M 113.518182 177.762353 
L 113.518182 173.809412 
" clip-path="url(#p9967c84f5a)" style="fill: none; stroke: #000000; stroke-width: 3"/>
    <path d="M 119.154545 177.762353 
L 119.154545 173.809412 
" clip-path="url(#p9967c84f5a)" style="fill: none; stroke: #000000; stroke-width: 3"/>
    <path d="M 124.790909 177.762353 
L 124.790909 173.809412 
" clip-path="url(#p9967c84f5a)" style="fill: none; stroke: #000000; stroke-width: 3"/>
    <path d="M 130.427273 177.762353 
L 130.427273 173.809412 
" clip-path="url(#p9967c84f5a)" style="fill: none; stroke: #000000; stroke-width: 3"/>
    <path d="M 147.336364 177.762353 
L 147.336364 173.809412 
" clip-path="url(#p9967c84f5a)" style="fill: none; stroke: #000000; stroke-width: 3"/>
    <path d="M 152.972727 177.762353 
L 152.972727 173.809412 
" clip-path="url(#p9967c84f5a)" style="fill: none; stroke: #000000; stroke-width: 3"/>
    <path d="M 158.609091 177.762353 
L 158.609091 173.809412 
" clip-path="url(#p9967c84f5a)" style="fill: none; stroke: #000000; stroke-width: 3"/>
    <path d="M 164.245455 177.762353 
L 164.245455 173.809412 
" clip-path="url(#p9967c84f5a)" style="fill: none; stroke: #000000; stroke-width: 3"/>
    <path d="M 169.881818 177.762353 
L 169.881818 173.809412 
" clip-path="url(#p9967c84f5a)" style="fill: none; stroke: #000000; stroke-width: 3"/>
    <path d="M 175.518182 177.762353 
L 175.518182 173.809412 
" clip-path="url(#p9967c84f5a)" style="fill: none; stroke: #000000; stroke-width: 3"/>
    <path d="M 181.154545 177.762353 
L 181.154545 173.809412 
" clip-path="url(#p9967c84f5a)" style="fill: none; stroke: #000000; stroke-width: 3"/>
    <path d="M 186.790909 177.762353 
L 186.790909 173.809412 
" clip-path="url(#p9967c84f5a)" style="fill: none; stroke: #000000; stroke-width: 3"/>
   </g>
   <g id="EventCollection_30"/>
  </g>
 </g>
 <defs>
  <clipPath id="p9967c84f5a">
   <rect x="27" y="25.92" width="167.4" height="166.32"/>
  </clipPath>
 </defs>
</svg>
